<svg width="61" height="60" viewBox="0 0 61 60" fill="none" xmlns="http://www.w3.org/2000/svg">
<path d="M30.0534 0.773413C30.4258 0.35997 31.0742 0.359969 31.4466 0.773412L33.6602 3.23109C33.9687 3.57366 34.4806 3.64104 34.8673 3.39L37.6415 1.58899C38.1082 1.28602 38.7346 1.45384 38.9873 1.94958L40.4893 4.89643C40.6987 5.30719 41.1757 5.50475 41.6142 5.36235L44.76 4.34073C45.2892 4.16887 45.8508 4.49309 45.9666 5.03733L46.6548 8.27254C46.7507 8.72349 47.1603 9.03776 47.6207 9.0137L50.9237 8.84111C51.4794 8.81208 51.9379 9.27059 51.9089 9.82625L51.7363 13.1293C51.7122 13.5897 52.0265 13.9993 52.4775 14.0952L55.7127 14.7834C56.2569 14.8992 56.5811 15.4608 56.4093 15.99L55.3877 19.1358C55.2453 19.5743 55.4428 20.0513 55.8536 20.2607L58.8004 21.7627C59.2962 22.0154 59.464 22.6418 59.161 23.1085L57.36 25.8827C57.109 26.2694 57.1763 26.7813 57.5189 27.0898L59.9766 29.3034C60.39 29.6758 60.39 30.3242 59.9766 30.6966L57.5189 32.9102C57.1763 33.2187 57.109 33.7306 57.36 34.1173L59.161 36.8915C59.464 37.3582 59.2962 37.9846 58.8004 38.2373L55.8536 39.7393C55.4428 39.9487 55.2453 40.4257 55.3877 40.8642L56.4093 44.01C56.5811 44.5392 56.2569 45.1008 55.7127 45.2166L52.4775 45.9048C52.0265 46.0007 51.7122 46.4103 51.7363 46.8707L51.9089 50.1737C51.9379 50.7294 51.4794 51.1879 50.9237 51.1589L47.6207 50.9863C47.1603 50.9622 46.7507 51.2765 46.6548 51.7275L45.9666 54.9627C45.8508 55.5069 45.2892 55.8311 44.76 55.6593L41.6142 54.6377C41.1757 54.4953 40.6987 54.6928 40.4893 55.1036L38.9873 58.0504C38.7346 58.5462 38.1082 58.714 37.6415 58.411L34.8673 56.61C34.4806 56.359 33.9687 56.4263 33.6602 56.7689L31.4466 59.2266C31.0742 59.64 30.4258 59.64 30.0534 59.2266L27.8398 56.7689C27.5313 56.4263 27.0194 56.359 26.6327 56.61L23.8585 58.411C23.3918 58.714 22.7654 58.5462 22.5127 58.0504L21.0107 55.1036C20.8013 54.6928 20.3243 54.4953 19.8858 54.6377L16.74 55.6593C16.2108 55.8311 15.6492 55.5069 15.5334 54.9627L14.8452 51.7275C14.7493 51.2765 14.3398 50.9622 13.8793 50.9863L10.5763 51.1589C10.0206 51.1879 9.56208 50.7294 9.59111 50.1737L9.7637 46.8707C9.78776 46.4103 9.47349 46.0007 9.02254 45.9048L5.78733 45.2166C5.24309 45.1008 4.91887 44.5392 5.09073 44.01L6.11235 40.8642C6.25475 40.4257 6.05719 39.9487 5.64643 39.7393L2.69958 38.2373C2.20384 37.9846 2.03601 37.3582 2.33899 36.8915L4.14 34.1173C4.39104 33.7306 4.32366 33.2187 3.98109 32.9102L1.52341 30.6966C1.10997 30.3242 1.10997 29.6758 1.52341 29.3034L3.98109 27.0898C4.32366 26.7813 4.39104 26.2694 4.14 25.8827L2.33899 23.1085C2.03602 22.6418 2.20384 22.0154 2.69958 21.7627L5.64643 20.2607C6.05719 20.0513 6.25475 19.5743 6.11235 19.1358L5.09073 15.99C4.91887 15.4608 5.24309 14.8992 5.78733 14.7834L9.02254 14.0952C9.47349 13.9993 9.78776 13.5898 9.7637 13.1293L9.59111 9.82625C9.56208 9.27059 10.0206 8.81208 10.5763 8.84111L13.8793 9.0137C14.3397 9.03776 14.7493 8.72349 14.8452 8.27254L15.5334 5.03733C15.6492 4.49309 16.2108 4.16887 16.74 4.34073L19.8858 5.36235C20.3243 5.50475 20.8013 5.30719 21.0107 4.89643L22.5127 1.94958C22.7654 1.45384 23.3918 1.28601 23.8585 1.58899L26.6327 3.39C27.0194 3.64104 27.5313 3.57366 27.8398 3.23109L30.0534 0.773413Z" fill="#FFBD3F"/>
<path d="M30.0534 0.773413C30.4258 0.35997 31.0742 0.359969 31.4466 0.773412L33.6602 3.23109C33.9687 3.57366 34.4806 3.64104 34.8673 3.39L37.6415 1.58899C38.1082 1.28602 38.7346 1.45384 38.9873 1.94958L40.4893 4.89643C40.6987 5.30719 41.1757 5.50475 41.6142 5.36235L44.76 4.34073C45.2892 4.16887 45.8508 4.49309 45.9666 5.03733L46.6548 8.27254C46.7507 8.72349 47.1603 9.03776 47.6207 9.0137L50.9237 8.84111C51.4794 8.81208 51.9379 9.27059 51.9089 9.82625L51.7363 13.1293C51.7122 13.5897 52.0265 13.9993 52.4775 14.0952L55.7127 14.7834C56.2569 14.8992 56.5811 15.4608 56.4093 15.99L55.3877 19.1358C55.2453 19.5743 55.4428 20.0513 55.8536 20.2607L58.8004 21.7627C59.2962 22.0154 59.464 22.6418 59.161 23.1085L57.36 25.8827C57.109 26.2694 57.1763 26.7813 57.5189 27.0898L59.9766 29.3034C60.39 29.6758 60.39 30.3242 59.9766 30.6966L57.5189 32.9102C57.1763 33.2187 57.109 33.7306 57.36 34.1173L59.161 36.8915C59.464 37.3582 59.2962 37.9846 58.8004 38.2373L55.8536 39.7393C55.4428 39.9487 55.2453 40.4257 55.3877 40.8642L56.4093 44.01C56.5811 44.5392 56.2569 45.1008 55.7127 45.2166L52.4775 45.9048C52.0265 46.0007 51.7122 46.4103 51.7363 46.8707L51.9089 50.1737C51.9379 50.7294 51.4794 51.1879 50.9237 51.1589L47.6207 50.9863C47.1603 50.9622 46.7507 51.2765 46.6548 51.7275L45.9666 54.9627C45.8508 55.5069 45.2892 55.8311 44.76 55.6593L41.6142 54.6377C41.1757 54.4953 40.6987 54.6928 40.4893 55.1036L38.9873 58.0504C38.7346 58.5462 38.1082 58.714 37.6415 58.411L34.8673 56.61C34.4806 56.359 33.9687 56.4263 33.6602 56.7689L31.4466 59.2266C31.0742 59.64 30.4258 59.64 30.0534 59.2266L27.8398 56.7689C27.5313 56.4263 27.0194 56.359 26.6327 56.61L23.8585 58.411C23.3918 58.714 22.7654 58.5462 22.5127 58.0504L21.0107 55.1036C20.8013 54.6928 20.3243 54.4953 19.8858 54.6377L16.74 55.6593C16.2108 55.8311 15.6492 55.5069 15.5334 54.9627L14.8452 51.7275C14.7493 51.2765 14.3398 50.9622 13.8793 50.9863L10.5763 51.1589C10.0206 51.1879 9.56208 50.7294 9.59111 50.1737L9.7637 46.8707C9.78776 46.4103 9.47349 46.0007 9.02254 45.9048L5.78733 45.2166C5.24309 45.1008 4.91887 44.5392 5.09073 44.01L6.11235 40.8642C6.25475 40.4257 6.05719 39.9487 5.64643 39.7393L2.69958 38.2373C2.20384 37.9846 2.03601 37.3582 2.33899 36.8915L4.14 34.1173C4.39104 33.7306 4.32366 33.2187 3.98109 32.9102L1.52341 30.6966C1.10997 30.3242 1.10997 29.6758 1.52341 29.3034L3.98109 27.0898C4.32366 26.7813 4.39104 26.2694 4.14 25.8827L2.33899 23.1085C2.03602 22.6418 2.20384 22.0154 2.69958 21.7627L5.64643 20.2607C6.05719 20.0513 6.25475 19.5743 6.11235 19.1358L5.09073 15.99C4.91887 15.4608 5.24309 14.8992 5.78733 14.7834L9.02254 14.0952C9.47349 13.9993 9.78776 13.5898 9.7637 13.1293L9.59111 9.82625C9.56208 9.27059 10.0206 8.81208 10.5763 8.84111L13.8793 9.0137C14.3397 9.03776 14.7493 8.72349 14.8452 8.27254L15.5334 5.03733C15.6492 4.49309 16.2108 4.16887 16.74 4.34073L19.8858 5.36235C20.3243 5.50475 20.8013 5.30719 21.0107 4.89643L22.5127 1.94958C22.7654 1.45384 23.3918 1.28601 23.8585 1.58899L26.6327 3.39C27.0194 3.64104 27.5313 3.57366 27.8398 3.23109L30.0534 0.773413Z" fill="url(#paint0_radial_2090_631)" fill-opacity="0.32"/>
<defs>
<radialGradient id="paint0_radial_2090_631" cx="0" cy="0" r="1" gradientUnits="userSpaceOnUse" gradientTransform="translate(60.75 60) rotate(-135) scale(84.8528)">
<stop/>
<stop offset="1" stop-opacity="0"/>
</radialGradient>
</defs>
</svg>
