<svg width="61" height="60" viewBox="0 0 61 60" fill="none" xmlns="http://www.w3.org/2000/svg">
<path d="M29.8869 0.773413C30.2593 0.35997 30.9077 0.359969 31.2801 0.773412L33.4937 3.23109C33.8022 3.57366 34.3141 3.64104 34.7008 3.39L37.475 1.58899C37.9417 1.28602 38.5681 1.45384 38.8208 1.94958L40.3228 4.89643C40.5322 5.30719 41.0092 5.50475 41.4477 5.36235L44.5935 4.34073C45.1227 4.16887 45.6843 4.49309 45.8001 5.03733L46.4883 8.27254C46.5842 8.72349 46.9937 9.03776 47.4542 9.0137L50.7572 8.84111C51.3129 8.81208 51.7714 9.27059 51.7424 9.82625L51.5698 13.1293C51.5457 13.5897 51.86 13.9993 52.311 14.0952L55.5462 14.7834C56.0904 14.8992 56.4146 15.4608 56.2428 15.99L55.2211 19.1358C55.0787 19.5743 55.2763 20.0513 55.6871 20.2607L58.6339 21.7627C59.1297 22.0154 59.2975 22.6418 58.9945 23.1085L57.1935 25.8827C56.9425 26.2694 57.0098 26.7813 57.3524 27.0898L59.8101 29.3034C60.2235 29.6758 60.2235 30.3242 59.8101 30.6966L57.3524 32.9102C57.0098 33.2187 56.9425 33.7306 57.1935 34.1173L58.9945 36.8915C59.2975 37.3582 59.1297 37.9846 58.6339 38.2373L55.6871 39.7393C55.2763 39.9487 55.0787 40.4257 55.2211 40.8642L56.2428 44.01C56.4146 44.5392 56.0904 45.1008 55.5462 45.2166L52.311 45.9048C51.86 46.0007 51.5457 46.4103 51.5698 46.8707L51.7424 50.1737C51.7714 50.7294 51.3129 51.1879 50.7572 51.1589L47.4542 50.9863C46.9937 50.9622 46.5842 51.2765 46.4883 51.7275L45.8001 54.9627C45.6843 55.5069 45.1227 55.8311 44.5935 55.6593L41.4477 54.6377C41.0092 54.4953 40.5322 54.6928 40.3228 55.1036L38.8208 58.0504C38.5681 58.5462 37.9417 58.714 37.475 58.411L34.7008 56.61C34.3141 56.359 33.8022 56.4263 33.4937 56.7689L31.2801 59.2266C30.9077 59.64 30.2593 59.64 29.8869 59.2266L27.6733 56.7689C27.3648 56.4263 26.8529 56.359 26.4662 56.61L23.692 58.411C23.2253 58.714 22.5989 58.5462 22.3462 58.0504L20.8442 55.1036C20.6348 54.6928 20.1578 54.4953 19.7193 54.6377L16.5735 55.6593C16.0443 55.8311 15.4827 55.5069 15.3669 54.9627L14.6787 51.7275C14.5828 51.2765 14.1732 50.9622 13.7128 50.9863L10.4098 51.1589C9.85409 51.1879 9.39557 50.7294 9.42461 50.1737L9.5972 46.8707C9.62126 46.4103 9.30699 46.0007 8.85604 45.9048L5.62083 45.2166C5.07659 45.1008 4.75237 44.5392 4.92423 44.01L5.94584 40.8642C6.08824 40.4257 5.89068 39.9487 5.47993 39.7393L2.53307 38.2373C2.03734 37.9846 1.86951 37.3582 2.17249 36.8915L3.9735 34.1173C4.22454 33.7306 4.15716 33.2187 3.81459 32.9102L1.35691 30.6966C0.943466 30.3242 0.943466 29.6758 1.35691 29.3034L3.81458 27.0898C4.15716 26.7813 4.22454 26.2694 3.9735 25.8827L2.17249 23.1085C1.86951 22.6418 2.03734 22.0154 2.53307 21.7627L5.47993 20.2607C5.89068 20.0513 6.08824 19.5743 5.94584 19.1358L4.92423 15.99C4.75237 15.4608 5.07659 14.8992 5.62083 14.7834L8.85604 14.0952C9.30698 13.9993 9.62126 13.5898 9.5972 13.1293L9.42461 9.82625C9.39557 9.27059 9.85409 8.81208 10.4097 8.84111L13.7128 9.0137C14.1732 9.03776 14.5828 8.72349 14.6787 8.27254L15.3669 5.03733C15.4827 4.49309 16.0443 4.16887 16.5735 4.34073L19.7193 5.36235C20.1578 5.50475 20.6348 5.30719 20.8442 4.89643L22.3462 1.94958C22.5989 1.45384 23.2253 1.28601 23.692 1.58899L26.4662 3.39C26.8529 3.64104 27.3648 3.57366 27.6733 3.23109L29.8869 0.773413Z" fill="#A41A2E"/>
<path d="M29.8869 0.773413C30.2593 0.35997 30.9077 0.359969 31.2801 0.773412L33.4937 3.23109C33.8022 3.57366 34.3141 3.64104 34.7008 3.39L37.475 1.58899C37.9417 1.28602 38.5681 1.45384 38.8208 1.94958L40.3228 4.89643C40.5322 5.30719 41.0092 5.50475 41.4477 5.36235L44.5935 4.34073C45.1227 4.16887 45.6843 4.49309 45.8001 5.03733L46.4883 8.27254C46.5842 8.72349 46.9937 9.03776 47.4542 9.0137L50.7572 8.84111C51.3129 8.81208 51.7714 9.27059 51.7424 9.82625L51.5698 13.1293C51.5457 13.5897 51.86 13.9993 52.311 14.0952L55.5462 14.7834C56.0904 14.8992 56.4146 15.4608 56.2428 15.99L55.2211 19.1358C55.0787 19.5743 55.2763 20.0513 55.6871 20.2607L58.6339 21.7627C59.1297 22.0154 59.2975 22.6418 58.9945 23.1085L57.1935 25.8827C56.9425 26.2694 57.0098 26.7813 57.3524 27.0898L59.8101 29.3034C60.2235 29.6758 60.2235 30.3242 59.8101 30.6966L57.3524 32.9102C57.0098 33.2187 56.9425 33.7306 57.1935 34.1173L58.9945 36.8915C59.2975 37.3582 59.1297 37.9846 58.6339 38.2373L55.6871 39.7393C55.2763 39.9487 55.0787 40.4257 55.2211 40.8642L56.2428 44.01C56.4146 44.5392 56.0904 45.1008 55.5462 45.2166L52.311 45.9048C51.86 46.0007 51.5457 46.4103 51.5698 46.8707L51.7424 50.1737C51.7714 50.7294 51.3129 51.1879 50.7572 51.1589L47.4542 50.9863C46.9937 50.9622 46.5842 51.2765 46.4883 51.7275L45.8001 54.9627C45.6843 55.5069 45.1227 55.8311 44.5935 55.6593L41.4477 54.6377C41.0092 54.4953 40.5322 54.6928 40.3228 55.1036L38.8208 58.0504C38.5681 58.5462 37.9417 58.714 37.475 58.411L34.7008 56.61C34.3141 56.359 33.8022 56.4263 33.4937 56.7689L31.2801 59.2266C30.9077 59.64 30.2593 59.64 29.8869 59.2266L27.6733 56.7689C27.3648 56.4263 26.8529 56.359 26.4662 56.61L23.692 58.411C23.2253 58.714 22.5989 58.5462 22.3462 58.0504L20.8442 55.1036C20.6348 54.6928 20.1578 54.4953 19.7193 54.6377L16.5735 55.6593C16.0443 55.8311 15.4827 55.5069 15.3669 54.9627L14.6787 51.7275C14.5828 51.2765 14.1732 50.9622 13.7128 50.9863L10.4098 51.1589C9.85409 51.1879 9.39557 50.7294 9.42461 50.1737L9.5972 46.8707C9.62126 46.4103 9.30699 46.0007 8.85604 45.9048L5.62083 45.2166C5.07659 45.1008 4.75237 44.5392 4.92423 44.01L5.94584 40.8642C6.08824 40.4257 5.89068 39.9487 5.47993 39.7393L2.53307 38.2373C2.03734 37.9846 1.86951 37.3582 2.17249 36.8915L3.9735 34.1173C4.22454 33.7306 4.15716 33.2187 3.81459 32.9102L1.35691 30.6966C0.943466 30.3242 0.943466 29.6758 1.35691 29.3034L3.81458 27.0898C4.15716 26.7813 4.22454 26.2694 3.9735 25.8827L2.17249 23.1085C1.86951 22.6418 2.03734 22.0154 2.53307 21.7627L5.47993 20.2607C5.89068 20.0513 6.08824 19.5743 5.94584 19.1358L4.92423 15.99C4.75237 15.4608 5.07659 14.8992 5.62083 14.7834L8.85604 14.0952C9.30698 13.9993 9.62126 13.5898 9.5972 13.1293L9.42461 9.82625C9.39557 9.27059 9.85409 8.81208 10.4097 8.84111L13.7128 9.0137C14.1732 9.03776 14.5828 8.72349 14.6787 8.27254L15.3669 5.03733C15.4827 4.49309 16.0443 4.16887 16.5735 4.34073L19.7193 5.36235C20.1578 5.50475 20.6348 5.30719 20.8442 4.89643L22.3462 1.94958C22.5989 1.45384 23.2253 1.28601 23.692 1.58899L26.4662 3.39C26.8529 3.64104 27.3648 3.57366 27.6733 3.23109L29.8869 0.773413Z" fill="url(#paint0_radial_2090_625)" fill-opacity="0.32"/>
<defs>
<radialGradient id="paint0_radial_2090_625" cx="0" cy="0" r="1" gradientUnits="userSpaceOnUse" gradientTransform="translate(60.5835 60) rotate(-135) scale(84.8528)">
<stop/>
<stop offset="1" stop-opacity="0"/>
</radialGradient>
</defs>
</svg>
