<svg width="61" height="60" viewBox="0 0 61 60" fill="none" xmlns="http://www.w3.org/2000/svg">
<path d="M30.2204 0.773413C30.5928 0.35997 31.2412 0.359969 31.6136 0.773412L33.8272 3.23109C34.1357 3.57366 34.6476 3.64104 35.0343 3.39L37.8085 1.58899C38.2752 1.28602 38.9016 1.45384 39.1543 1.94958L40.6563 4.89643C40.8657 5.30719 41.3427 5.50475 41.7811 5.36235L44.927 4.34073C45.4562 4.16887 46.0178 4.49309 46.1336 5.03733L46.8218 8.27254C46.9177 8.72349 47.3272 9.03776 47.7877 9.0137L51.0907 8.84111C51.6464 8.81208 52.1049 9.27059 52.0759 9.82625L51.9033 13.1293C51.8792 13.5897 52.1935 13.9993 52.6445 14.0952L55.8797 14.7834C56.4239 14.8992 56.7481 15.4608 56.5763 15.99L55.5546 19.1358C55.4122 19.5743 55.6098 20.0513 56.0206 20.2607L58.9674 21.7627C59.4631 22.0154 59.631 22.6418 59.328 23.1085L57.527 25.8827C57.2759 26.2694 57.3433 26.7813 57.6859 27.0898L60.1436 29.3034C60.557 29.6758 60.557 30.3242 60.1436 30.6966L57.6859 32.9102C57.3433 33.2187 57.2759 33.7306 57.527 34.1173L59.328 36.8915C59.631 37.3582 59.4631 37.9846 58.9674 38.2373L56.0206 39.7393C55.6098 39.9487 55.4122 40.4257 55.5546 40.8642L56.5763 44.01C56.7481 44.5392 56.4239 45.1008 55.8797 45.2166L52.6444 45.9048C52.1935 46.0007 51.8792 46.4103 51.9033 46.8707L52.0759 50.1737C52.1049 50.7294 51.6464 51.1879 51.0907 51.1589L47.7877 50.9863C47.3272 50.9622 46.9177 51.2765 46.8218 51.7275L46.1336 54.9627C46.0178 55.5069 45.4562 55.8311 44.927 55.6593L41.7811 54.6377C41.3427 54.4953 40.8657 54.6928 40.6563 55.1036L39.1543 58.0504C38.9016 58.5462 38.2752 58.714 37.8085 58.411L35.0343 56.61C34.6476 56.359 34.1357 56.4263 33.8272 56.7689L31.6136 59.2266C31.2412 59.64 30.5928 59.64 30.2204 59.2266L28.0068 56.7689C27.6982 56.4263 27.1864 56.359 26.7997 56.61L24.0255 58.411C23.5588 58.714 22.9324 58.5462 22.6797 58.0504L21.1777 55.1036C20.9683 54.6928 20.4913 54.4953 20.0528 54.6377L16.907 55.6593C16.3778 55.8311 15.8162 55.5069 15.7004 54.9627L15.0122 51.7275C14.9163 51.2765 14.5067 50.9622 14.0463 50.9863L10.7432 51.1589C10.1876 51.1879 9.72907 50.7294 9.7581 50.1737L9.9307 46.8707C9.95475 46.4103 9.64048 46.0007 9.18953 45.9048L5.95433 45.2166C5.41008 45.1008 5.08586 44.5392 5.25772 44.01L6.27934 40.8642C6.42174 40.4257 6.22418 39.9487 5.81342 39.7393L2.86657 38.2373C2.37084 37.9846 2.20301 37.3582 2.50598 36.8915L4.307 34.1173C4.55804 33.7306 4.49065 33.2187 4.14808 32.9102L1.6904 30.6966C1.27696 30.3242 1.27696 29.6758 1.6904 29.3034L4.14808 27.0898C4.49065 26.7813 4.55804 26.2694 4.307 25.8827L2.50598 23.1085C2.20301 22.6418 2.37084 22.0154 2.86657 21.7627L5.81342 20.2607C6.22418 20.0513 6.42174 19.5743 6.27934 19.1358L5.25772 15.99C5.08586 15.4608 5.41008 14.8992 5.95432 14.7834L9.18953 14.0952C9.64048 13.9993 9.95475 13.5898 9.9307 13.1293L9.7581 9.82625C9.72907 9.27059 10.1876 8.81208 10.7432 8.84111L14.0463 9.0137C14.5067 9.03776 14.9163 8.72349 15.0122 8.27254L15.7004 5.03733C15.8162 4.49309 16.3778 4.16887 16.907 4.34073L20.0528 5.36235C20.4913 5.50475 20.9683 5.30719 21.1777 4.89643L22.6797 1.94958C22.9324 1.45384 23.5588 1.28601 24.0255 1.58899L26.7997 3.39C27.1864 3.64104 27.6982 3.57366 28.0068 3.23109L30.2204 0.773413Z" fill="#6842FE"/>
<path d="M30.2204 0.773413C30.5928 0.35997 31.2412 0.359969 31.6136 0.773412L33.8272 3.23109C34.1357 3.57366 34.6476 3.64104 35.0343 3.39L37.8085 1.58899C38.2752 1.28602 38.9016 1.45384 39.1543 1.94958L40.6563 4.89643C40.8657 5.30719 41.3427 5.50475 41.7811 5.36235L44.927 4.34073C45.4562 4.16887 46.0178 4.49309 46.1336 5.03733L46.8218 8.27254C46.9177 8.72349 47.3272 9.03776 47.7877 9.0137L51.0907 8.84111C51.6464 8.81208 52.1049 9.27059 52.0759 9.82625L51.9033 13.1293C51.8792 13.5897 52.1935 13.9993 52.6445 14.0952L55.8797 14.7834C56.4239 14.8992 56.7481 15.4608 56.5763 15.99L55.5546 19.1358C55.4122 19.5743 55.6098 20.0513 56.0206 20.2607L58.9674 21.7627C59.4631 22.0154 59.631 22.6418 59.328 23.1085L57.527 25.8827C57.2759 26.2694 57.3433 26.7813 57.6859 27.0898L60.1436 29.3034C60.557 29.6758 60.557 30.3242 60.1436 30.6966L57.6859 32.9102C57.3433 33.2187 57.2759 33.7306 57.527 34.1173L59.328 36.8915C59.631 37.3582 59.4631 37.9846 58.9674 38.2373L56.0206 39.7393C55.6098 39.9487 55.4122 40.4257 55.5546 40.8642L56.5763 44.01C56.7481 44.5392 56.4239 45.1008 55.8797 45.2166L52.6444 45.9048C52.1935 46.0007 51.8792 46.4103 51.9033 46.8707L52.0759 50.1737C52.1049 50.7294 51.6464 51.1879 51.0907 51.1589L47.7877 50.9863C47.3272 50.9622 46.9177 51.2765 46.8218 51.7275L46.1336 54.9627C46.0178 55.5069 45.4562 55.8311 44.927 55.6593L41.7811 54.6377C41.3427 54.4953 40.8657 54.6928 40.6563 55.1036L39.1543 58.0504C38.9016 58.5462 38.2752 58.714 37.8085 58.411L35.0343 56.61C34.6476 56.359 34.1357 56.4263 33.8272 56.7689L31.6136 59.2266C31.2412 59.64 30.5928 59.64 30.2204 59.2266L28.0068 56.7689C27.6982 56.4263 27.1864 56.359 26.7997 56.61L24.0255 58.411C23.5588 58.714 22.9324 58.5462 22.6797 58.0504L21.1777 55.1036C20.9683 54.6928 20.4913 54.4953 20.0528 54.6377L16.907 55.6593C16.3778 55.8311 15.8162 55.5069 15.7004 54.9627L15.0122 51.7275C14.9163 51.2765 14.5067 50.9622 14.0463 50.9863L10.7432 51.1589C10.1876 51.1879 9.72907 50.7294 9.7581 50.1737L9.9307 46.8707C9.95475 46.4103 9.64048 46.0007 9.18953 45.9048L5.95433 45.2166C5.41008 45.1008 5.08586 44.5392 5.25772 44.01L6.27934 40.8642C6.42174 40.4257 6.22418 39.9487 5.81342 39.7393L2.86657 38.2373C2.37084 37.9846 2.20301 37.3582 2.50598 36.8915L4.307 34.1173C4.55804 33.7306 4.49065 33.2187 4.14808 32.9102L1.6904 30.6966C1.27696 30.3242 1.27696 29.6758 1.6904 29.3034L4.14808 27.0898C4.49065 26.7813 4.55804 26.2694 4.307 25.8827L2.50598 23.1085C2.20301 22.6418 2.37084 22.0154 2.86657 21.7627L5.81342 20.2607C6.22418 20.0513 6.42174 19.5743 6.27934 19.1358L5.25772 15.99C5.08586 15.4608 5.41008 14.8992 5.95432 14.7834L9.18953 14.0952C9.64048 13.9993 9.95475 13.5898 9.9307 13.1293L9.7581 9.82625C9.72907 9.27059 10.1876 8.81208 10.7432 8.84111L14.0463 9.0137C14.5067 9.03776 14.9163 8.72349 15.0122 8.27254L15.7004 5.03733C15.8162 4.49309 16.3778 4.16887 16.907 4.34073L20.0528 5.36235C20.4913 5.50475 20.9683 5.30719 21.1777 4.89643L22.6797 1.94958C22.9324 1.45384 23.5588 1.28601 24.0255 1.58899L26.7997 3.39C27.1864 3.64104 27.6982 3.57366 28.0068 3.23109L30.2204 0.773413Z" fill="url(#paint0_radial_2090_640)" fill-opacity="0.32"/>
<defs>
<radialGradient id="paint0_radial_2090_640" cx="0" cy="0" r="1" gradientUnits="userSpaceOnUse" gradientTransform="translate(60.917 60) rotate(-135) scale(84.8528)">
<stop/>
<stop offset="1" stop-opacity="0"/>
</radialGradient>
</defs>
</svg>
