<svg width="28" height="28" viewBox="0 0 28 28" fill="none" xmlns="http://www.w3.org/2000/svg">
<g clip-path="url(#clip0_129_1345)">
<path d="M27.0637 19.0039C27.0642 18.9988 27.0642 18.9937 27.0637 18.9886L25.271 9.7825C25.271 9.77594 25.271 9.76938 25.271 9.76281C24.9943 8.25131 24.1966 6.88458 23.0166 5.90025C21.8366 4.91591 20.349 4.37622 18.8124 4.375H9.17537C7.63444 4.37441 6.14264 4.91716 4.96235 5.90781C3.78205 6.89846 2.98885 8.27355 2.72225 9.79125L0.938343 18.9886C0.937816 18.9937 0.937816 18.9988 0.938343 19.0039C0.793139 19.8284 0.914508 20.6777 1.28483 21.4285C1.65515 22.1794 2.25514 22.7926 2.99769 23.1793C3.74025 23.5659 4.58671 23.7058 5.41418 23.5787C6.24166 23.4515 7.00706 23.0639 7.59928 22.4722L7.63756 22.4317L11.9787 17.5H16.0255L20.3688 22.4317C20.3808 22.4459 20.394 22.4591 20.4071 22.4722C21.1452 23.2087 22.1447 23.6231 23.1874 23.625C23.7621 23.6246 24.3298 23.4984 24.8506 23.2553C25.3714 23.0122 25.8326 22.6579 26.2019 22.2176C26.5712 21.7772 26.8396 21.2613 26.9883 20.7061C27.137 20.1509 27.1623 19.5699 27.0626 19.0039H27.0637ZM11.3749 12.25H10.4999V13.125C10.4999 13.3571 10.4077 13.5796 10.2436 13.7437C10.0795 13.9078 9.85697 14 9.62491 14C9.39284 14 9.17028 13.9078 9.00619 13.7437C8.84209 13.5796 8.74991 13.3571 8.74991 13.125V12.25H7.87491C7.64284 12.25 7.42028 12.1578 7.25619 11.9937C7.09209 11.8296 6.99991 11.6071 6.99991 11.375C6.99991 11.1429 7.09209 10.9204 7.25619 10.7563C7.42028 10.5922 7.64284 10.5 7.87491 10.5H8.74991V9.625C8.74991 9.39294 8.84209 9.17038 9.00619 9.00628C9.17028 8.84219 9.39284 8.75 9.62491 8.75C9.85697 8.75 10.0795 8.84219 10.2436 9.00628C10.4077 9.17038 10.4999 9.39294 10.4999 9.625V10.5H11.3749C11.607 10.5 11.8295 10.5922 11.9936 10.7563C12.1577 10.9204 12.2499 11.1429 12.2499 11.375C12.2499 11.6071 12.1577 11.8296 11.9936 11.9937C11.8295 12.1578 11.607 12.25 11.3749 12.25ZM15.7499 11.375C15.7499 11.1429 15.8421 10.9204 16.0062 10.7563C16.1703 10.5922 16.3928 10.5 16.6249 10.5H19.2499C19.482 10.5 19.7045 10.5922 19.8686 10.7563C20.0327 10.9204 20.1249 11.1429 20.1249 11.375C20.1249 11.6071 20.0327 11.8296 19.8686 11.9937C19.7045 12.1578 19.482 12.25 19.2499 12.25H16.6249C16.3928 12.25 16.1703 12.1578 16.0062 11.9937C15.8421 11.8296 15.7499 11.6071 15.7499 11.375ZM24.9779 20.942C24.814 21.178 24.6049 21.3791 24.3627 21.5336C24.1205 21.6881 23.85 21.793 23.5669 21.8422C23.2245 21.9021 22.8728 21.8799 22.5406 21.7774C22.2084 21.6749 21.9053 21.4951 21.6562 21.2527L18.353 17.5H18.8124C19.9295 17.5002 21.0282 17.2151 22.0043 16.6719C22.9805 16.1287 23.8018 15.3453 24.3905 14.3959L25.3465 19.3178C25.3951 19.5995 25.3876 19.888 25.3244 20.1667C25.2611 20.4455 25.1434 20.709 24.9779 20.942Z" fill="#6842FE"/>
</g>
<defs>
<clipPath id="clip0_129_1345">
<rect width="28" height="28" fill="white"/>
</clipPath>
</defs>
</svg>
