<svg width="28" height="28" viewBox="0 0 28 28" fill="none" xmlns="http://www.w3.org/2000/svg">
<g clip-path="url(#clip0_129_1342)">
<path d="M24.15 18.55C23.9985 18.4364 23.8143 18.375 23.625 18.375H22.75V7C22.75 6.07174 22.3813 5.1815 21.7249 4.52513C21.0685 3.86875 20.1783 3.5 19.25 3.5H4.375C3.44674 3.5 2.5565 3.86875 1.90013 4.52513C1.24375 5.1815 0.875 6.07174 0.875 7C0.875 8.48859 1.97422 9.35594 2.1 9.45C2.25104 9.56438 2.43553 9.62588 2.625 9.625C2.80736 9.6245 2.98501 9.56704 3.13312 9.46064C3.28123 9.35424 3.39239 9.20422 3.45107 9.03155C3.50975 8.85889 3.51301 8.6722 3.46041 8.49759C3.4078 8.32298 3.30195 8.16917 3.15766 8.05766C3.15328 8.05219 2.625 7.62781 2.625 7C2.625 6.53587 2.80937 6.09075 3.13756 5.76256C3.46575 5.43437 3.91087 5.25 4.375 5.25C4.83913 5.25 5.28425 5.43437 5.61244 5.76256C5.94063 6.09075 6.125 6.53587 6.125 7V21C6.125 21.9283 6.49375 22.8185 7.15013 23.4749C7.8065 24.1313 8.69674 24.5 9.625 24.5H21.875C22.8033 24.5 23.6935 24.1313 24.3499 23.4749C25.0063 22.8185 25.375 21.9283 25.375 21C25.375 19.5114 24.2812 18.6441 24.15 18.55ZM11.375 10.5H18.375C18.6071 10.5 18.8296 10.5922 18.9937 10.7563C19.1578 10.9204 19.25 11.1429 19.25 11.375C19.25 11.6071 19.1578 11.8296 18.9937 11.9937C18.8296 12.1578 18.6071 12.25 18.375 12.25H11.375C11.1429 12.25 10.9204 12.1578 10.7563 11.9937C10.5922 11.8296 10.5 11.6071 10.5 11.375C10.5 11.1429 10.5922 10.9204 10.7563 10.7563C10.9204 10.5922 11.1429 10.5 11.375 10.5ZM10.5 14.875C10.5 14.6429 10.5922 14.4204 10.7563 14.2563C10.9204 14.0922 11.1429 14 11.375 14H18.375C18.6071 14 18.8296 14.0922 18.9937 14.2563C19.1578 14.4204 19.25 14.6429 19.25 14.875C19.25 15.1071 19.1578 15.3296 18.9937 15.4937C18.8296 15.6578 18.6071 15.75 18.375 15.75H11.375C11.1429 15.75 10.9204 15.6578 10.7563 15.4937C10.5922 15.3296 10.5 15.1071 10.5 14.875ZM21.875 22.75H11.7808C12.0889 22.2183 12.2508 21.6145 12.25 21C12.2502 20.7033 12.2056 20.4083 12.1177 20.125H23.2739C23.4911 20.3659 23.6162 20.6758 23.6272 21C23.6272 21.23 23.5819 21.4577 23.4938 21.6702C23.4057 21.8827 23.2766 22.0757 23.1139 22.2382C22.9511 22.4007 22.7579 22.5296 22.5454 22.6174C22.3328 22.7052 22.105 22.7503 21.875 22.75Z" fill="#6842FE"/>
</g>
<defs>
<clipPath id="clip0_129_1342">
<rect width="28" height="28" fill="white"/>
</clipPath>
</defs>
</svg>
