<svg width="100" height="100" viewBox="0 0 100 100" fill="none" xmlns="http://www.w3.org/2000/svg">
<path d="M48.5139 1.64995C49.3083 0.767935 50.6917 0.767935 51.4861 1.64995L54.6003 5.10759C55.2586 5.83841 56.3505 5.98216 57.1754 5.44661L61.0785 2.91281C62.0741 2.26646 63.4103 2.62449 63.9494 3.68206L66.0626 7.82792C66.5093 8.7042 67.5267 9.12566 68.4622 8.82187L72.888 7.38458C74.017 7.01795 75.215 7.70961 75.462 8.87067L76.4302 13.4222C76.6349 14.3842 77.5086 15.0547 78.4908 15.0033L83.1378 14.7605C84.3232 14.6986 85.3014 15.6768 85.2395 16.8622L84.9967 21.5092C84.9453 22.4914 85.6158 23.3652 86.5778 23.5698L91.1293 24.538C92.2904 24.785 92.9821 25.983 92.6154 27.112L91.1781 31.5378C90.8743 32.4733 91.2958 33.4907 92.1721 33.9374L96.3179 36.0506C97.3755 36.5897 97.7335 37.9259 97.0872 38.9215L94.5534 42.8246C94.0178 43.6495 94.1616 44.7414 94.8924 45.3997L98.3501 48.5139C99.2321 49.3083 99.2321 50.6917 98.3501 51.4861L94.8924 54.6003C94.1616 55.2586 94.0178 56.3505 94.5534 57.1754L97.0872 61.0785C97.7335 62.0741 97.3755 63.4103 96.3179 63.9494L92.1721 66.0626C91.2958 66.5093 90.8743 67.5267 91.1781 68.4622L92.6154 72.888C92.9821 74.017 92.2904 75.215 91.1293 75.462L86.5778 76.4302C85.6158 76.6349 84.9453 77.5086 84.9967 78.4908L85.2395 83.1378C85.3014 84.3232 84.3232 85.3014 83.1378 85.2395L78.4908 84.9967C77.5086 84.9453 76.6349 85.6158 76.4302 86.5778L75.462 91.1293C75.215 92.2904 74.017 92.9821 72.888 92.6154L68.4622 91.1781C67.5267 90.8743 66.5093 91.2958 66.0626 92.1721L63.9494 96.3179C63.4103 97.3755 62.0741 97.7335 61.0785 97.0872L57.1754 94.5534C56.3505 94.0178 55.2586 94.1616 54.6003 94.8924L51.4861 98.3501C50.6917 99.2321 49.3083 99.2321 48.5139 98.3501L45.3997 94.8924C44.7414 94.1616 43.6495 94.0178 42.8246 94.5534L38.9215 97.0872C37.9259 97.7335 36.5897 97.3755 36.0506 96.3179L33.9374 92.1721C33.4907 91.2958 32.4733 90.8743 31.5378 91.1781L27.112 92.6154C25.983 92.9821 24.785 92.2904 24.538 91.1293L23.5698 86.5778C23.3652 85.6158 22.4914 84.9453 21.5092 84.9967L16.8622 85.2395C15.6768 85.3014 14.6986 84.3232 14.7605 83.1378L15.0033 78.4908C15.0547 77.5086 14.3842 76.6349 13.4222 76.4302L8.87067 75.462C7.70962 75.215 7.01795 74.017 7.38458 72.888L8.82187 68.4622C9.12566 67.5267 8.7042 66.5093 7.82792 66.0626L3.68206 63.9494C2.62449 63.4103 2.26646 62.0741 2.91281 61.0785L5.44661 57.1754C5.98216 56.3505 5.83841 55.2586 5.10759 54.6003L1.64995 51.4861C0.767935 50.6917 0.767935 49.3083 1.64995 48.5139L5.10759 45.3997C5.83841 44.7414 5.98216 43.6495 5.44661 42.8246L2.91281 38.9215C2.26646 37.9259 2.62449 36.5897 3.68206 36.0506L7.82792 33.9374C8.7042 33.4907 9.12566 32.4733 8.82187 31.5378L7.38458 27.112C7.01795 25.983 7.70962 24.785 8.87067 24.538L13.4222 23.5698C14.3842 23.3652 15.0547 22.4914 15.0033 21.5092L14.7605 16.8622C14.6986 15.6768 15.6768 14.6986 16.8622 14.7605L21.5092 15.0033C22.4914 15.0547 23.3652 14.3842 23.5698 13.4222L24.538 8.87067C24.785 7.70962 25.983 7.01795 27.112 7.38458L31.5378 8.82187C32.4733 9.12566 33.4907 8.7042 33.9374 7.82792L36.0506 3.68206C36.5897 2.62449 37.9259 2.26646 38.9215 2.91281L42.8246 5.44661C43.6495 5.98216 44.7414 5.83841 45.3997 5.10759L48.5139 1.64995Z" fill="#6842FE"/>
<path d="M48.5139 1.64995C49.3083 0.767935 50.6917 0.767935 51.4861 1.64995L54.6003 5.10759C55.2586 5.83841 56.3505 5.98216 57.1754 5.44661L61.0785 2.91281C62.0741 2.26646 63.4103 2.62449 63.9494 3.68206L66.0626 7.82792C66.5093 8.7042 67.5267 9.12566 68.4622 8.82187L72.888 7.38458C74.017 7.01795 75.215 7.70961 75.462 8.87067L76.4302 13.4222C76.6349 14.3842 77.5086 15.0547 78.4908 15.0033L83.1378 14.7605C84.3232 14.6986 85.3014 15.6768 85.2395 16.8622L84.9967 21.5092C84.9453 22.4914 85.6158 23.3652 86.5778 23.5698L91.1293 24.538C92.2904 24.785 92.9821 25.983 92.6154 27.112L91.1781 31.5378C90.8743 32.4733 91.2958 33.4907 92.1721 33.9374L96.3179 36.0506C97.3755 36.5897 97.7335 37.9259 97.0872 38.9215L94.5534 42.8246C94.0178 43.6495 94.1616 44.7414 94.8924 45.3997L98.3501 48.5139C99.2321 49.3083 99.2321 50.6917 98.3501 51.4861L94.8924 54.6003C94.1616 55.2586 94.0178 56.3505 94.5534 57.1754L97.0872 61.0785C97.7335 62.0741 97.3755 63.4103 96.3179 63.9494L92.1721 66.0626C91.2958 66.5093 90.8743 67.5267 91.1781 68.4622L92.6154 72.888C92.9821 74.017 92.2904 75.215 91.1293 75.462L86.5778 76.4302C85.6158 76.6349 84.9453 77.5086 84.9967 78.4908L85.2395 83.1378C85.3014 84.3232 84.3232 85.3014 83.1378 85.2395L78.4908 84.9967C77.5086 84.9453 76.6349 85.6158 76.4302 86.5778L75.462 91.1293C75.215 92.2904 74.017 92.9821 72.888 92.6154L68.4622 91.1781C67.5267 90.8743 66.5093 91.2958 66.0626 92.1721L63.9494 96.3179C63.4103 97.3755 62.0741 97.7335 61.0785 97.0872L57.1754 94.5534C56.3505 94.0178 55.2586 94.1616 54.6003 94.8924L51.4861 98.3501C50.6917 99.2321 49.3083 99.2321 48.5139 98.3501L45.3997 94.8924C44.7414 94.1616 43.6495 94.0178 42.8246 94.5534L38.9215 97.0872C37.9259 97.7335 36.5897 97.3755 36.0506 96.3179L33.9374 92.1721C33.4907 91.2958 32.4733 90.8743 31.5378 91.1781L27.112 92.6154C25.983 92.9821 24.785 92.2904 24.538 91.1293L23.5698 86.5778C23.3652 85.6158 22.4914 84.9453 21.5092 84.9967L16.8622 85.2395C15.6768 85.3014 14.6986 84.3232 14.7605 83.1378L15.0033 78.4908C15.0547 77.5086 14.3842 76.6349 13.4222 76.4302L8.87067 75.462C7.70962 75.215 7.01795 74.017 7.38458 72.888L8.82187 68.4622C9.12566 67.5267 8.7042 66.5093 7.82792 66.0626L3.68206 63.9494C2.62449 63.4103 2.26646 62.0741 2.91281 61.0785L5.44661 57.1754C5.98216 56.3505 5.83841 55.2586 5.10759 54.6003L1.64995 51.4861C0.767935 50.6917 0.767935 49.3083 1.64995 48.5139L5.10759 45.3997C5.83841 44.7414 5.98216 43.6495 5.44661 42.8246L2.91281 38.9215C2.26646 37.9259 2.62449 36.5897 3.68206 36.0506L7.82792 33.9374C8.7042 33.4907 9.12566 32.4733 8.82187 31.5378L7.38458 27.112C7.01795 25.983 7.70962 24.785 8.87067 24.538L13.4222 23.5698C14.3842 23.3652 15.0547 22.4914 15.0033 21.5092L14.7605 16.8622C14.6986 15.6768 15.6768 14.6986 16.8622 14.7605L21.5092 15.0033C22.4914 15.0547 23.3652 14.3842 23.5698 13.4222L24.538 8.87067C24.785 7.70962 25.983 7.01795 27.112 7.38458L31.5378 8.82187C32.4733 9.12566 33.4907 8.7042 33.9374 7.82792L36.0506 3.68206C36.5897 2.62449 37.9259 2.26646 38.9215 2.91281L42.8246 5.44661C43.6495 5.98216 44.7414 5.83841 45.3997 5.10759L48.5139 1.64995Z" fill="url(#paint0_radial_2116_562)" fill-opacity="0.32"/>
<defs>
<radialGradient id="paint0_radial_2116_562" cx="0" cy="0" r="1" gradientUnits="userSpaceOnUse" gradientTransform="translate(100 100) rotate(-135) scale(141.421)">
<stop/>
<stop offset="1" stop-opacity="0"/>
</radialGradient>
</defs>
</svg>
