<svg width="128" height="128" viewBox="0 0 128 128" fill="none" xmlns="http://www.w3.org/2000/svg">
<path d="M62.5139 1.64995C63.3083 0.767937 64.6917 0.767936 65.4861 1.64995L70.2084 6.89299C70.8666 7.62381 71.9586 7.76756 72.7835 7.23201L78.7019 3.38985C79.6976 2.7435 81.0338 3.10153 81.5728 4.1591L84.7773 10.4457C85.2239 11.322 86.2414 11.7435 87.1769 11.4397L93.888 9.26023C95.017 8.89359 96.215 9.58526 96.462 10.7463L97.9302 17.6481C98.1348 18.6101 99.0085 19.2806 99.9907 19.2292L107.037 18.861C108.223 18.7991 109.201 19.7773 109.139 20.9627L108.771 28.0093C108.719 28.9915 109.39 29.8652 110.352 30.0699L117.254 31.538C118.415 31.785 119.106 32.983 118.74 34.112L116.56 40.8231C116.257 41.7586 116.678 42.7761 117.554 43.2228L123.841 46.4272C124.898 46.9662 125.257 48.3024 124.61 49.2981L120.768 55.2165C120.232 56.0414 120.376 57.1333 121.107 57.7916L126.35 62.5139C127.232 63.3083 127.232 64.6917 126.35 65.4861L121.107 70.2084C120.376 70.8666 120.232 71.9586 120.768 72.7835L124.61 78.7019C125.256 79.6976 124.898 81.0338 123.841 81.5728L117.554 84.7773C116.678 85.2239 116.257 86.2414 116.56 87.1769L118.74 93.888C119.106 95.017 118.415 96.215 117.254 96.462L110.352 97.9302C109.39 98.1348 108.719 99.0085 108.771 99.9907L109.139 107.037C109.201 108.223 108.223 109.201 107.037 109.139L99.9907 108.771C99.0085 108.719 98.1348 109.39 97.9302 110.352L96.462 117.254C96.215 118.415 95.017 119.106 93.888 118.74L87.1769 116.56C86.2414 116.257 85.2239 116.678 84.7773 117.554L81.5728 123.841C81.0338 124.898 79.6976 125.257 78.7019 124.61L72.7835 120.768C71.9586 120.232 70.8667 120.376 70.2084 121.107L65.4861 126.35C64.6917 127.232 63.3083 127.232 62.5139 126.35L57.7916 121.107C57.1334 120.376 56.0414 120.232 55.2165 120.768L49.2981 124.61C48.3024 125.256 46.9662 124.898 46.4272 123.841L43.2228 117.554C42.7761 116.678 41.7586 116.257 40.8231 116.56L34.112 118.74C32.983 119.106 31.785 118.415 31.538 117.254L30.0699 110.352C29.8652 109.39 28.9915 108.719 28.0093 108.771L20.9627 109.139C19.7773 109.201 18.7991 108.223 18.861 107.037L19.2292 99.9907C19.2806 99.0085 18.6101 98.1348 17.6481 97.9302L10.7463 96.462C9.58526 96.215 8.89359 95.017 9.26023 93.888L11.4397 87.1769C11.7435 86.2414 11.322 85.2239 10.4457 84.7773L4.1591 81.5728C3.10154 81.0338 2.7435 79.6976 3.38985 78.7019L7.23201 72.7835C7.76756 71.9586 7.62381 70.8667 6.89299 70.2084L1.64995 65.4861C0.767937 64.6917 0.767936 63.3083 1.64995 62.5139L6.89299 57.7916C7.62381 57.1334 7.76756 56.0414 7.23201 55.2165L3.38985 49.2981C2.7435 48.3024 3.10153 46.9662 4.1591 46.4272L10.4457 43.2228C11.322 42.7761 11.7435 41.7586 11.4397 40.8231L9.26023 34.112C8.89359 32.983 9.58526 31.785 10.7463 31.538L17.6481 30.0699C18.6101 29.8652 19.2806 28.9915 19.2292 28.0093L18.861 20.9627C18.7991 19.7773 19.7773 18.7991 20.9627 18.861L28.0093 19.2292C28.9915 19.2806 29.8652 18.6101 30.0699 17.6481L31.538 10.7463C31.785 9.58526 32.983 8.89359 34.112 9.26023L40.8231 11.4397C41.7586 11.7435 42.7761 11.322 43.2228 10.4457L46.4272 4.1591C46.9662 3.10154 48.3024 2.7435 49.2981 3.38985L55.2165 7.23201C56.0414 7.76756 57.1333 7.62381 57.7916 6.89299L62.5139 1.64995Z" fill="#6842FE"/>
<path d="M62.5139 1.64995C63.3083 0.767937 64.6917 0.767936 65.4861 1.64995L70.2084 6.89299C70.8666 7.62381 71.9586 7.76756 72.7835 7.23201L78.7019 3.38985C79.6976 2.7435 81.0338 3.10153 81.5728 4.1591L84.7773 10.4457C85.2239 11.322 86.2414 11.7435 87.1769 11.4397L93.888 9.26023C95.017 8.89359 96.215 9.58526 96.462 10.7463L97.9302 17.6481C98.1348 18.6101 99.0085 19.2806 99.9907 19.2292L107.037 18.861C108.223 18.7991 109.201 19.7773 109.139 20.9627L108.771 28.0093C108.719 28.9915 109.39 29.8652 110.352 30.0699L117.254 31.538C118.415 31.785 119.106 32.983 118.74 34.112L116.56 40.8231C116.257 41.7586 116.678 42.7761 117.554 43.2228L123.841 46.4272C124.898 46.9662 125.257 48.3024 124.61 49.2981L120.768 55.2165C120.232 56.0414 120.376 57.1333 121.107 57.7916L126.35 62.5139C127.232 63.3083 127.232 64.6917 126.35 65.4861L121.107 70.2084C120.376 70.8666 120.232 71.9586 120.768 72.7835L124.61 78.7019C125.256 79.6976 124.898 81.0338 123.841 81.5728L117.554 84.7773C116.678 85.2239 116.257 86.2414 116.56 87.1769L118.74 93.888C119.106 95.017 118.415 96.215 117.254 96.462L110.352 97.9302C109.39 98.1348 108.719 99.0085 108.771 99.9907L109.139 107.037C109.201 108.223 108.223 109.201 107.037 109.139L99.9907 108.771C99.0085 108.719 98.1348 109.39 97.9302 110.352L96.462 117.254C96.215 118.415 95.017 119.106 93.888 118.74L87.1769 116.56C86.2414 116.257 85.2239 116.678 84.7773 117.554L81.5728 123.841C81.0338 124.898 79.6976 125.257 78.7019 124.61L72.7835 120.768C71.9586 120.232 70.8667 120.376 70.2084 121.107L65.4861 126.35C64.6917 127.232 63.3083 127.232 62.5139 126.35L57.7916 121.107C57.1334 120.376 56.0414 120.232 55.2165 120.768L49.2981 124.61C48.3024 125.256 46.9662 124.898 46.4272 123.841L43.2228 117.554C42.7761 116.678 41.7586 116.257 40.8231 116.56L34.112 118.74C32.983 119.106 31.785 118.415 31.538 117.254L30.0699 110.352C29.8652 109.39 28.9915 108.719 28.0093 108.771L20.9627 109.139C19.7773 109.201 18.7991 108.223 18.861 107.037L19.2292 99.9907C19.2806 99.0085 18.6101 98.1348 17.6481 97.9302L10.7463 96.462C9.58526 96.215 8.89359 95.017 9.26023 93.888L11.4397 87.1769C11.7435 86.2414 11.322 85.2239 10.4457 84.7773L4.1591 81.5728C3.10154 81.0338 2.7435 79.6976 3.38985 78.7019L7.23201 72.7835C7.76756 71.9586 7.62381 70.8667 6.89299 70.2084L1.64995 65.4861C0.767937 64.6917 0.767936 63.3083 1.64995 62.5139L6.89299 57.7916C7.62381 57.1334 7.76756 56.0414 7.23201 55.2165L3.38985 49.2981C2.7435 48.3024 3.10153 46.9662 4.1591 46.4272L10.4457 43.2228C11.322 42.7761 11.7435 41.7586 11.4397 40.8231L9.26023 34.112C8.89359 32.983 9.58526 31.785 10.7463 31.538L17.6481 30.0699C18.6101 29.8652 19.2806 28.9915 19.2292 28.0093L18.861 20.9627C18.7991 19.7773 19.7773 18.7991 20.9627 18.861L28.0093 19.2292C28.9915 19.2806 29.8652 18.6101 30.0699 17.6481L31.538 10.7463C31.785 9.58526 32.983 8.89359 34.112 9.26023L40.8231 11.4397C41.7586 11.7435 42.7761 11.322 43.2228 10.4457L46.4272 4.1591C46.9662 3.10154 48.3024 2.7435 49.2981 3.38985L55.2165 7.23201C56.0414 7.76756 57.1333 7.62381 57.7916 6.89299L62.5139 1.64995Z" fill="url(#paint0_radial_2085_562)" fill-opacity="0.32"/>
<defs>
<radialGradient id="paint0_radial_2085_562" cx="0" cy="0" r="1" gradientUnits="userSpaceOnUse" gradientTransform="translate(128 128) rotate(-135) scale(181.019)">
<stop/>
<stop offset="1" stop-opacity="0"/>
</radialGradient>
</defs>
</svg>
