<svg width="60" height="60" viewBox="0 0 60 60" fill="none" xmlns="http://www.w3.org/2000/svg">
<rect x="0.6" y="0.6" width="58.8" height="58.8" rx="29.4" stroke="#E442FE" stroke-width="1.2"/>
<g clip-path="url(#clip0_129_1522)">
<path d="M23.0131 32.1657C23.0161 32.2249 23.007 32.2842 22.9863 32.3398C22.9657 32.3955 22.9339 32.4463 22.893 32.4893C22.8521 32.5322 22.8028 32.5664 22.7483 32.5898C22.6937 32.6131 22.635 32.6251 22.5756 32.625H17.75C17.5525 32.6253 17.3607 32.5588 17.2058 32.4363C17.051 32.3138 16.9421 32.1425 16.8969 31.9502C16.8688 31.8186 16.8701 31.6824 16.9007 31.5514C16.9313 31.4204 16.9905 31.2977 17.0741 31.1922C17.8461 30.1685 18.8703 29.3624 20.0469 28.8527C19.5303 28.3817 19.1342 27.7939 18.8915 27.1383C18.6489 26.4827 18.5669 25.7786 18.6524 25.0848C18.7378 24.391 18.9883 23.7278 19.3828 23.1507C19.7773 22.5737 20.3043 22.0995 20.9197 21.768C21.5351 21.4365 22.221 21.2573 22.92 21.2454C23.6189 21.2335 24.3105 21.3892 24.9368 21.6995C25.5632 22.0099 26.1061 22.4658 26.52 23.0291C26.9339 23.5923 27.2069 24.2466 27.3159 24.9371C27.33 25.0299 27.3134 25.1248 27.2686 25.2074C27.2238 25.2899 27.1532 25.3555 27.0677 25.3943C25.854 25.9553 24.8262 26.8518 24.1055 27.978C23.3847 29.1042 23.0012 30.413 23 31.75C23 31.89 23 32.0279 23.0131 32.1657ZM42.9194 31.1911C42.1492 30.1686 41.1273 29.3629 39.9531 28.8527C40.4697 28.3817 40.8659 27.7939 41.1085 27.1383C41.3511 26.4827 41.4331 25.7786 41.3477 25.0848C41.2622 24.391 41.0117 23.7278 40.6172 23.1507C40.2227 22.5737 39.6957 22.0995 39.0803 21.768C38.4649 21.4365 37.779 21.2573 37.0801 21.2454C36.3811 21.2335 35.6895 21.3892 35.0632 21.6995C34.4368 22.0099 33.8939 22.4658 33.48 23.0291C33.0661 23.5923 32.7931 24.2466 32.6841 24.9371C32.67 25.0299 32.6866 25.1248 32.7314 25.2074C32.7763 25.2899 32.8468 25.3555 32.9324 25.3943C34.146 25.9553 35.1738 26.8518 35.8946 27.978C36.6153 29.1042 36.9989 30.413 37 31.75C37 31.89 37 32.0279 36.9869 32.1657C36.9839 32.2249 36.993 32.2842 37.0137 32.3398C37.0343 32.3955 37.0661 32.4463 37.107 32.4893C37.148 32.5322 37.1972 32.5664 37.2518 32.5898C37.3063 32.6131 37.365 32.6251 37.4244 32.625H42.25C42.4475 32.6253 42.6393 32.5588 42.7942 32.4363C42.9491 32.3138 43.058 32.1425 43.1031 31.9502C43.1314 31.8184 43.1301 31.6819 43.0993 31.5506C43.0685 31.4194 43.0089 31.2966 42.9249 31.1911H42.9194ZM33.185 35.914C34.0562 35.2467 34.6965 34.3233 35.0158 33.2734C35.3351 32.2235 35.3173 31.0999 34.9651 30.0606C34.6128 29.0213 33.9438 28.1185 33.0519 27.4791C32.1601 26.8397 31.0903 26.4959 29.9929 26.4959C28.8955 26.4959 27.8257 26.8397 26.9339 27.4791C26.0421 28.1185 25.373 29.0213 25.0207 30.0606C24.6685 31.0999 24.6507 32.2235 24.97 33.2734C25.2893 34.3233 25.9296 35.2467 26.8008 35.914C25.2548 36.5838 23.9639 37.731 23.117 39.1875C23.0402 39.3206 22.9998 39.4715 22.9998 39.6251C22.9998 39.7787 23.0403 39.9296 23.1171 40.0626C23.1939 40.1957 23.3044 40.3061 23.4374 40.3829C23.5705 40.4597 23.7214 40.5001 23.875 40.5H36.125C36.2786 40.5001 36.4295 40.4597 36.5626 40.3829C36.6956 40.3061 36.8061 40.1957 36.8829 40.0626C36.9598 39.9296 37.0002 39.7787 37.0002 39.6251C37.0002 39.4715 36.9598 39.3206 36.883 39.1875C36.0343 37.73 34.741 36.5828 33.1927 35.914H33.185Z" fill="#E9E9FF"/>
</g>
<defs>
<clipPath id="clip0_129_1522">
<rect width="28" height="28" fill="white" transform="translate(16 16)"/>
</clipPath>
</defs>
</svg>
