<svg width="60" height="60" viewBox="0 0 60 60" fill="none" xmlns="http://www.w3.org/2000/svg">
<rect x="0.6" y="0.6" width="58.8" height="58.8" rx="29.4" stroke="#E442FE" stroke-width="1.2"/>
<g clip-path="url(#clip0_129_1524)">
<path d="M39.625 21.25H20.375C19.9109 21.25 19.4658 21.4344 19.1376 21.7626C18.8094 22.0908 18.625 22.5359 18.625 23V40.5C18.623 40.8337 18.7174 41.1609 18.8969 41.4422C19.0764 41.7236 19.3333 41.9471 19.6368 42.0859C19.868 42.1936 20.1199 42.2496 20.375 42.25C20.7858 42.249 21.183 42.1025 21.4961 41.8366C21.5013 41.8332 21.5061 41.8291 21.5103 41.8245L25.0235 38.75H39.625C40.0892 38.75 40.5343 38.5656 40.8625 38.2374C41.1907 37.9092 41.375 37.4641 41.375 37V23C41.375 22.5359 41.1907 22.0908 40.8625 21.7626C40.5343 21.4344 40.0892 21.25 39.625 21.25ZM25.1875 31.3125C24.9279 31.3125 24.6742 31.2355 24.4583 31.0913C24.2425 30.9471 24.0743 30.7421 23.9749 30.5023C23.8756 30.2624 23.8496 29.9985 23.9003 29.7439C23.9509 29.4893 24.0759 29.2555 24.2595 29.0719C24.443 28.8884 24.6769 28.7634 24.9315 28.7127C25.1861 28.6621 25.45 28.6881 25.6898 28.7874C25.9296 28.8867 26.1346 29.055 26.2788 29.2708C26.4231 29.4867 26.5 29.7404 26.5 30C26.5 30.3481 26.3618 30.6819 26.1156 30.9281C25.8695 31.1742 25.5356 31.3125 25.1875 31.3125ZM30 31.3125C29.7404 31.3125 29.4867 31.2355 29.2708 31.0913C29.055 30.9471 28.8868 30.7421 28.7874 30.5023C28.6881 30.2624 28.6621 29.9985 28.7128 29.7439C28.7634 29.4893 28.8884 29.2555 29.072 29.0719C29.2555 28.8884 29.4894 28.7634 29.744 28.7127C29.9986 28.6621 30.2625 28.6881 30.5023 28.7874C30.7421 28.8867 30.9471 29.055 31.0913 29.2708C31.2356 29.4867 31.3125 29.7404 31.3125 30C31.3125 30.3481 31.1743 30.6819 30.9281 30.9281C30.682 31.1742 30.3481 31.3125 30 31.3125ZM34.8125 31.3125C34.5529 31.3125 34.2992 31.2355 34.0833 31.0913C33.8675 30.9471 33.6993 30.7421 33.5999 30.5023C33.5006 30.2624 33.4746 29.9985 33.5253 29.7439C33.5759 29.4893 33.7009 29.2555 33.8845 29.0719C34.068 28.8884 34.3019 28.7634 34.5565 28.7127C34.8111 28.6621 35.075 28.6881 35.3148 28.7874C35.5546 28.8867 35.7596 29.055 35.9038 29.2708C36.0481 29.4867 36.125 29.7404 36.125 30C36.125 30.3481 35.9868 30.6819 35.7406 30.9281C35.4945 31.1742 35.1606 31.3125 34.8125 31.3125Z" fill="#E9E9FF"/>
</g>
<defs>
<clipPath id="clip0_129_1524">
<rect width="28" height="28" fill="white" transform="translate(16 16)"/>
</clipPath>
</defs>
</svg>
