<svg width="60" height="60" viewBox="0 0 60 60" fill="none" xmlns="http://www.w3.org/2000/svg">
<rect x="0.6" y="0.6" width="58.8" height="58.8" rx="29.4" stroke="#E442FE" stroke-width="1.2"/>
<g clip-path="url(#clip0_167_742)">
<path d="M30 18.625C27.7502 18.625 25.551 19.2921 23.6804 20.542C21.8098 21.7919 20.3518 23.5685 19.4909 25.647C18.6299 27.7255 18.4047 30.0126 18.8436 32.2192C19.2825 34.4257 20.3658 36.4525 21.9567 38.0433C23.5475 39.6342 25.5743 40.7175 27.7809 41.1564C29.9874 41.5953 32.2745 41.3701 34.353 40.5091C36.4315 39.6482 38.2081 38.1902 39.458 36.3196C40.7079 34.449 41.375 32.2498 41.375 30C41.3718 26.9841 40.1724 24.0927 38.0398 21.9602C35.9073 19.8276 33.0159 18.6282 30 18.625ZM30 37C29.7404 37 29.4867 36.923 29.2708 36.7788C29.055 36.6346 28.8868 36.4296 28.7874 36.1898C28.6881 35.9499 28.6621 35.686 28.7127 35.4314C28.7634 35.1768 28.8884 34.943 29.0719 34.7594C29.2555 34.5759 29.4893 34.4509 29.7439 34.4002C29.9985 34.3496 30.2624 34.3756 30.5023 34.4749C30.7421 34.5742 30.9471 34.7425 31.0913 34.9583C31.2355 35.1742 31.3125 35.4279 31.3125 35.6875C31.3125 36.0356 31.1742 36.3694 30.9281 36.6156C30.6819 36.8617 30.3481 37 30 37ZM30.875 31.6712V31.75C30.875 31.9821 30.7828 32.2046 30.6187 32.3687C30.4546 32.5328 30.2321 32.625 30 32.625C29.7679 32.625 29.5454 32.5328 29.3813 32.3687C29.2172 32.2046 29.125 31.9821 29.125 31.75V30.875C29.125 30.6429 29.2172 30.4204 29.3813 30.2563C29.5454 30.0922 29.7679 30 30 30C31.447 30 32.625 29.0156 32.625 27.8125C32.625 26.6094 31.447 25.625 30 25.625C28.553 25.625 27.375 26.6094 27.375 27.8125V28.25C27.375 28.4821 27.2828 28.7046 27.1187 28.8687C26.9546 29.0328 26.7321 29.125 26.5 29.125C26.2679 29.125 26.0454 29.0328 25.8813 28.8687C25.7172 28.7046 25.625 28.4821 25.625 28.25V27.8125C25.625 25.6414 27.5872 23.875 30 23.875C32.4128 23.875 34.375 25.6414 34.375 27.8125C34.375 29.7134 32.87 31.3048 30.875 31.6712Z" fill="#E9E9FF"/>
</g>
<defs>
<clipPath id="clip0_167_742">
<rect width="28" height="28" fill="white" transform="translate(16 16)"/>
</clipPath>
</defs>
</svg>
