<svg width="60" height="60" viewBox="0 0 60 60" fill="none" xmlns="http://www.w3.org/2000/svg">
<rect x="0.6" y="0.6" width="58.8" height="58.8" rx="29.4" stroke="#E442FE" stroke-width="1.2"/>
<g clip-path="url(#clip0_129_1531)">
<path d="M42.6701 24.3333C42.4727 24.1612 42.2286 24.0516 41.9689 24.0185C41.7091 23.9854 41.4453 24.0303 41.2111 24.1474L35.7193 26.8817L31.1343 19.266C31.0165 19.0705 30.8501 18.9089 30.6514 18.7967C30.4527 18.6845 30.2283 18.6255 30.0001 18.6255C29.7719 18.6255 29.5476 18.6845 29.3488 18.7967C29.1501 18.9089 28.9838 19.0705 28.8659 19.266L24.2809 26.885L18.7914 24.1507C18.5577 24.0346 18.2949 23.9901 18.0361 24.0229C17.7772 24.0556 17.5338 24.1641 17.3363 24.3346C17.1389 24.5052 16.9962 24.7303 16.9262 24.9817C16.8562 25.233 16.862 25.4995 16.9429 25.7475L20.9898 38.1463C21.0305 38.2708 21.0986 38.3847 21.1892 38.4794C21.2798 38.5741 21.3905 38.6472 21.5131 38.6934C21.6357 38.7396 21.7672 38.7577 21.8977 38.7463C22.0282 38.7349 22.1545 38.6943 22.2673 38.6275C22.2946 38.6111 25.0914 37 30.0001 37C34.9089 37 37.7056 38.6111 37.7307 38.6264C37.8435 38.6938 37.9701 38.735 38.1009 38.7468C38.2318 38.7586 38.3637 38.7407 38.4867 38.6946C38.6097 38.6485 38.7208 38.5752 38.8117 38.4803C38.9025 38.3854 38.9708 38.2712 39.0115 38.1463L43.0584 25.7508C43.1416 25.5027 43.1491 25.2354 43.08 24.983C43.0108 24.7306 42.8682 24.5044 42.6701 24.3333ZM35.2326 33.15C35.1969 33.3524 35.0911 33.5358 34.9337 33.668C34.7763 33.8002 34.5774 33.8728 34.3718 33.873C34.3205 33.8729 34.2693 33.8685 34.2187 33.8599C31.4238 33.3801 28.5676 33.3801 25.7728 33.8599C25.6596 33.8798 25.5436 33.8773 25.4314 33.8524C25.3192 33.8276 25.213 33.7809 25.1188 33.7149C24.9287 33.5818 24.7992 33.3786 24.7589 33.15C24.7185 32.9214 24.7707 32.6862 24.9038 32.4961C25.0369 32.3059 25.2401 32.1764 25.4687 32.1361C28.4648 31.6213 31.5267 31.6213 34.5228 32.1361C34.6364 32.1556 34.745 32.1972 34.8424 32.2588C34.9399 32.3203 35.0242 32.4005 35.0905 32.4947C35.1569 32.5889 35.204 32.6953 35.2291 32.8077C35.2543 32.9202 35.2569 33.0365 35.237 33.15H35.2326Z" fill="#E9E9FF"/>
</g>
<defs>
<clipPath id="clip0_129_1531">
<rect width="28" height="28" fill="white" transform="translate(16 16)"/>
</clipPath>
</defs>
</svg>
