<svg width="60" height="60" viewBox="0 0 60 60" fill="none" xmlns="http://www.w3.org/2000/svg">
<rect x="0.6" y="0.6" width="58.8" height="58.8" rx="29.4" stroke="#E442FE" stroke-width="1.2"/>
<g clip-path="url(#clip0_167_509)">
<path d="M40.7034 27.2459C40.2911 26.815 39.8645 26.3709 39.7038 25.9805C39.555 25.6228 39.5462 25.03 39.5375 24.4558C39.5211 23.3883 39.5036 22.1786 38.6625 21.3375C37.8214 20.4964 36.6117 20.4789 35.5442 20.4625C34.97 20.4537 34.3772 20.445 34.0195 20.2962C33.6302 20.1355 33.185 19.7089 32.7541 19.2966C31.9994 18.5714 31.1419 17.75 30 17.75C28.8581 17.75 28.0017 18.5714 27.2459 19.2966C26.815 19.7089 26.3709 20.1355 25.9805 20.2962C25.625 20.445 25.03 20.4537 24.4558 20.4625C23.3883 20.4789 22.1786 20.4964 21.3375 21.3375C20.4964 22.1786 20.4844 23.3883 20.4625 24.4558C20.4537 25.03 20.445 25.6228 20.2962 25.9805C20.1355 26.3698 19.7089 26.815 19.2966 27.2459C18.5714 28.0006 17.75 28.8581 17.75 30C17.75 31.1419 18.5714 31.9983 19.2966 32.7541C19.7089 33.185 20.1355 33.6291 20.2962 34.0195C20.445 34.3772 20.4537 34.97 20.4625 35.5442C20.4789 36.6117 20.4964 37.8214 21.3375 38.6625C22.1786 39.5036 23.3883 39.5211 24.4558 39.5375C25.03 39.5462 25.6228 39.555 25.9805 39.7038C26.3698 39.8645 26.815 40.2911 27.2459 40.7034C28.0006 41.4286 28.8581 42.25 30 42.25C31.1419 42.25 31.9983 41.4286 32.7541 40.7034C33.185 40.2911 33.6291 39.8645 34.0195 39.7038C34.3772 39.555 34.97 39.5462 35.5442 39.5375C36.6117 39.5211 37.8214 39.5036 38.6625 38.6625C39.5036 37.8214 39.5211 36.6117 39.5375 35.5442C39.5462 34.97 39.555 34.3772 39.7038 34.0195C39.8645 33.6302 40.2911 33.185 40.7034 32.7541C41.4286 31.9994 42.25 31.1419 42.25 30C42.25 28.8581 41.4286 28.0017 40.7034 27.2459ZM34.9941 27.9941L28.8691 34.1191C28.7878 34.2004 28.6913 34.265 28.5851 34.309C28.4788 34.353 28.365 34.3757 28.25 34.3757C28.135 34.3757 28.0212 34.353 27.9149 34.309C27.8087 34.265 27.7122 34.2004 27.6309 34.1191L25.0059 31.4941C24.8418 31.3299 24.7495 31.1072 24.7495 30.875C24.7495 30.6428 24.8418 30.4201 25.0059 30.2559C25.1701 30.0918 25.3928 29.9995 25.625 29.9995C25.8572 29.9995 26.0799 30.0918 26.2441 30.2559L28.25 32.263L33.7559 26.7559C33.8372 26.6746 33.9337 26.6102 34.04 26.5662C34.1462 26.5222 34.26 26.4995 34.375 26.4995C34.49 26.4995 34.6038 26.5222 34.71 26.5662C34.8163 26.6102 34.9128 26.6746 34.9941 26.7559C35.0754 26.8372 35.1398 26.9337 35.1838 27.04C35.2278 27.1462 35.2505 27.26 35.2505 27.375C35.2505 27.49 35.2278 27.6038 35.1838 27.71C35.1398 27.8163 35.0754 27.9128 34.9941 27.9941Z" fill="#E9E9FF"/>
</g>
<defs>
<clipPath id="clip0_167_509">
<rect width="28" height="28" fill="white" transform="translate(16 16)"/>
</clipPath>
</defs>
</svg>
