<svg width="60" height="60" viewBox="0 0 60 60" fill="none" xmlns="http://www.w3.org/2000/svg">
<rect x="0.6" y="0.6" width="58.8" height="58.8" rx="29.4" stroke="#E442FE" stroke-width="1.2"/>
<g clip-path="url(#clip0_167_758)">
<path d="M23.875 27.375H27.375V32.625H23.875V27.375ZM41.375 22.125V39.625C41.3749 39.7741 41.3367 39.9208 41.264 40.051C41.1914 40.1812 41.0866 40.2907 40.9597 40.369C40.8328 40.4474 40.688 40.492 40.539 40.4987C40.39 40.5053 40.2418 40.4738 40.1084 40.407L37 38.8528L33.8916 40.407C33.77 40.4679 33.6359 40.4995 33.5 40.4995C33.3641 40.4995 33.23 40.4679 33.1084 40.407L30 38.8528L26.8916 40.407C26.77 40.4679 26.6359 40.4995 26.5 40.4995C26.3641 40.4995 26.23 40.4679 26.1084 40.407L23 38.8528L19.8916 40.407C19.7582 40.4738 19.61 40.5053 19.461 40.4987C19.312 40.492 19.1672 40.4474 19.0403 40.369C18.9134 40.2907 18.8086 40.1812 18.736 40.051C18.6633 39.9208 18.6251 39.7741 18.625 39.625V22.125C18.625 21.6609 18.8094 21.2158 19.1376 20.8876C19.4658 20.5594 19.9109 20.375 20.375 20.375H39.625C40.0891 20.375 40.5342 20.5594 40.8624 20.8876C41.1906 21.2158 41.375 21.6609 41.375 22.125ZM29.125 26.5C29.125 26.2679 29.0328 26.0454 28.8687 25.8813C28.7046 25.7172 28.4821 25.625 28.25 25.625H23C22.7679 25.625 22.5454 25.7172 22.3813 25.8813C22.2172 26.0454 22.125 26.2679 22.125 26.5V33.5C22.125 33.7321 22.2172 33.9546 22.3813 34.1187C22.5454 34.2828 22.7679 34.375 23 34.375H28.25C28.4821 34.375 28.7046 34.2828 28.8687 34.1187C29.0328 33.9546 29.125 33.7321 29.125 33.5V26.5ZM37.875 31.75C37.875 31.5179 37.7828 31.2954 37.6187 31.1313C37.4546 30.9672 37.2321 30.875 37 30.875H31.75C31.5179 30.875 31.2954 30.9672 31.1313 31.1313C30.9672 31.2954 30.875 31.5179 30.875 31.75C30.875 31.9821 30.9672 32.2046 31.1313 32.3687C31.2954 32.5328 31.5179 32.625 31.75 32.625H37C37.2321 32.625 37.4546 32.5328 37.6187 32.3687C37.7828 32.2046 37.875 31.9821 37.875 31.75ZM37.875 28.25C37.875 28.0179 37.7828 27.7954 37.6187 27.6313C37.4546 27.4672 37.2321 27.375 37 27.375H31.75C31.5179 27.375 31.2954 27.4672 31.1313 27.6313C30.9672 27.7954 30.875 28.0179 30.875 28.25C30.875 28.4821 30.9672 28.7046 31.1313 28.8687C31.2954 29.0328 31.5179 29.125 31.75 29.125H37C37.2321 29.125 37.4546 29.0328 37.6187 28.8687C37.7828 28.7046 37.875 28.4821 37.875 28.25Z" fill="#E9E9FF"/>
</g>
<defs>
<clipPath id="clip0_167_758">
<rect width="28" height="28" fill="white" transform="translate(16 16)"/>
</clipPath>
</defs>
</svg>
