<svg width="60" height="60" viewBox="0 0 60 60" fill="none" xmlns="http://www.w3.org/2000/svg">
<rect x="0.6" y="0.6" width="58.8" height="58.8" rx="29.4" stroke="#E442FE" stroke-width="1.2"/>
<g clip-path="url(#clip0_167_501)">
<path d="M41.375 23H38.75V22.125C38.75 21.6609 38.5656 21.2158 38.2374 20.8876C37.9092 20.5594 37.4641 20.375 37 20.375H23C22.5359 20.375 22.0908 20.5594 21.7626 20.8876C21.4344 21.2158 21.25 21.6609 21.25 22.125V23H18.625C18.1609 23 17.7158 23.1844 17.3876 23.5126C17.0594 23.8408 16.875 24.2859 16.875 24.75V26.5C16.875 27.6603 17.3359 28.7731 18.1564 29.5936C18.5627 29.9998 19.045 30.3221 19.5758 30.542C20.1066 30.7618 20.6755 30.875 21.25 30.875H21.6492C22.1646 32.5084 23.1474 33.955 24.476 35.036C25.8046 36.117 27.4209 36.7849 29.125 36.9573V39.625H26.5C26.2679 39.625 26.0454 39.7172 25.8813 39.8813C25.7172 40.0454 25.625 40.2679 25.625 40.5C25.625 40.7321 25.7172 40.9546 25.8813 41.1187C26.0454 41.2828 26.2679 41.375 26.5 41.375H33.5C33.7321 41.375 33.9546 41.2828 34.1187 41.1187C34.2828 40.9546 34.375 40.7321 34.375 40.5C34.375 40.2679 34.2828 40.0454 34.1187 39.8813C33.9546 39.7172 33.7321 39.625 33.5 39.625H30.875V36.9541C34.3684 36.6008 37.2669 34.1497 38.3213 30.875H38.75C39.9103 30.875 41.0231 30.4141 41.8436 29.5936C42.6641 28.7731 43.125 27.6603 43.125 26.5V24.75C43.125 24.2859 42.9406 23.8408 42.6124 23.5126C42.2842 23.1844 41.8391 23 41.375 23ZM21.25 29.125C20.5538 29.125 19.8861 28.8484 19.3938 28.3562C18.9016 27.8639 18.625 27.1962 18.625 26.5V24.75H21.25V28.25C21.25 28.5417 21.2642 28.8333 21.2927 29.125H21.25ZM41.375 26.5C41.375 27.1962 41.0984 27.8639 40.6062 28.3562C40.1139 28.8484 39.4462 29.125 38.75 29.125H38.6953C38.7312 28.8018 38.7495 28.4768 38.75 28.1516V24.75H41.375V26.5Z" fill="#E9E9FF"/>
</g>
<defs>
<clipPath id="clip0_167_501">
<rect width="28" height="28" fill="white" transform="translate(16 16)"/>
</clipPath>
</defs>
</svg>
