<svg width="60" height="60" viewBox="0 0 60 60" fill="none" xmlns="http://www.w3.org/2000/svg">
<rect x="0.6" y="0.6" width="58.8" height="58.8" rx="29.4" stroke="#E442FE" stroke-width="1.2"/>
<g clip-path="url(#clip0_167_750)">
<path d="M29.9986 18.625C28.0347 18.6246 26.1042 19.1326 24.3949 20.0996C22.6856 21.0667 21.2558 22.4597 20.2447 24.1433C19.2336 25.8268 18.6755 27.7435 18.6249 29.7067C18.5742 31.6699 19.0327 33.6128 19.9558 35.3463L18.7144 39.0705C18.6115 39.3788 18.5966 39.7097 18.6713 40.026C18.7459 40.3424 18.9072 40.6317 19.137 40.8615C19.3669 41.0914 19.6562 41.2527 19.9725 41.3273C20.2889 41.402 20.6198 41.387 20.9281 41.2842L24.6523 40.0428C26.1779 40.8542 27.8682 41.3074 29.595 41.368C31.3218 41.4286 33.0398 41.095 34.6184 40.3925C36.1971 39.69 37.5949 38.6372 38.7059 37.3138C39.8169 35.9904 40.6118 34.4313 41.0303 32.7549C41.4487 31.0784 41.4798 29.3287 41.1211 27.6384C40.7623 25.9482 40.0233 24.3619 38.9599 22.9999C37.8966 21.6379 36.537 20.5361 34.9842 19.7781C33.4315 19.02 31.7265 18.6257 29.9986 18.625ZM25.1861 31.3125C24.9265 31.3125 24.6727 31.2355 24.4569 31.0913C24.2411 30.9471 24.0728 30.7421 23.9735 30.5023C23.8741 30.2624 23.8482 29.9985 23.8988 29.7439C23.9494 29.4893 24.0744 29.2555 24.258 29.0719C24.4416 28.8884 24.6754 28.7634 24.93 28.7127C25.1846 28.6621 25.4485 28.6881 25.6883 28.7874C25.9282 28.8867 26.1332 29.055 26.2774 29.2708C26.4216 29.4867 26.4986 29.7404 26.4986 30C26.4986 30.3481 26.3603 30.6819 26.1142 30.9281C25.868 31.1742 25.5342 31.3125 25.1861 31.3125ZM29.9986 31.3125C29.739 31.3125 29.4852 31.2355 29.2694 31.0913C29.0536 30.9471 28.8853 30.7421 28.786 30.5023C28.6866 30.2624 28.6607 29.9985 28.7113 29.7439C28.7619 29.4893 28.8869 29.2555 29.0705 29.0719C29.2541 28.8884 29.4879 28.7634 29.7425 28.7127C29.9971 28.6621 30.261 28.6881 30.5008 28.7874C30.7407 28.8867 30.9457 29.055 31.0899 29.2708C31.2341 29.4867 31.3111 29.7404 31.3111 30C31.3111 30.3481 31.1728 30.6819 30.9267 30.9281C30.6805 31.1742 30.3467 31.3125 29.9986 31.3125ZM34.8111 31.3125C34.5515 31.3125 34.2977 31.2355 34.0819 31.0913C33.8661 30.9471 33.6978 30.7421 33.5985 30.5023C33.4991 30.2624 33.4732 29.9985 33.5238 29.7439C33.5744 29.4893 33.6994 29.2555 33.883 29.0719C34.0666 28.8884 34.3004 28.7634 34.555 28.7127C34.8096 28.6621 35.0735 28.6881 35.3133 28.7874C35.5532 28.8867 35.7582 29.055 35.9024 29.2708C36.0466 29.4867 36.1236 29.7404 36.1236 30C36.1236 30.3481 35.9853 30.6819 35.7392 30.9281C35.493 31.1742 35.1592 31.3125 34.8111 31.3125Z" fill="#E9E9FF"/>
</g>
<defs>
<clipPath id="clip0_167_750">
<rect width="28" height="28" fill="white" transform="translate(16 16)"/>
</clipPath>
</defs>
</svg>
