<svg width="60" height="60" viewBox="0 0 60 60" fill="none" xmlns="http://www.w3.org/2000/svg">
<rect x="0.6" y="0.6" width="58.8" height="58.8" rx="29.4" stroke="#E442FE" stroke-width="1.2"/>
<g clip-path="url(#clip0_167_766)">
<path d="M23.0134 32.1656C23.0163 32.2249 23.0072 32.2841 22.9866 32.3398C22.9659 32.3954 22.9342 32.4462 22.8932 32.4892C22.8523 32.5322 22.8031 32.5664 22.7485 32.5897C22.694 32.6131 22.6352 32.6251 22.5759 32.625H17.7503C17.5528 32.6253 17.361 32.5588 17.2061 32.4362C17.0512 32.3137 16.9423 32.1424 16.8971 31.9501C16.869 31.8185 16.8703 31.6824 16.9009 31.5513C16.9316 31.4203 16.9908 31.2977 17.0743 31.1922C17.8463 30.1684 18.8706 29.3623 20.0471 28.8526C19.5306 28.3817 19.1344 27.7938 18.8918 27.1382C18.6492 26.4827 18.5671 25.7785 18.6526 25.0847C18.7381 24.391 18.9886 23.7278 19.383 23.1507C19.7775 22.5736 20.3046 22.0995 20.92 21.768C21.5354 21.4365 22.2213 21.2572 22.9202 21.2453C23.6191 21.2334 24.3107 21.3891 24.9371 21.6995C25.5634 22.0098 26.1063 22.4657 26.5203 23.029C26.9342 23.5923 27.2071 24.2466 27.3162 24.937C27.3303 25.0299 27.3136 25.1248 27.2688 25.2073C27.224 25.2898 27.1535 25.3555 27.0679 25.3942C25.8543 25.9553 24.8265 26.8518 24.1057 27.9779C23.385 29.1041 23.0014 30.4129 23.0003 31.75C23.0003 31.89 23.0003 32.0278 23.0134 32.1656ZM42.9196 31.1911C42.1494 30.1685 41.1275 29.3628 39.9534 28.8526C40.4699 28.3817 40.8661 27.7938 41.1087 27.1382C41.3514 26.4827 41.4334 25.7785 41.3479 25.0847C41.2624 24.391 41.012 23.7278 40.6175 23.1507C40.223 22.5736 39.696 22.0995 39.0805 21.768C38.4651 21.4365 37.7792 21.2572 37.0803 21.2453C36.3814 21.2334 35.6898 21.3891 35.0634 21.6995C34.4371 22.0098 33.8942 22.4657 33.4803 23.029C33.0663 23.5923 32.7934 24.2466 32.6843 24.937C32.6702 25.0299 32.6869 25.1248 32.7317 25.2073C32.7765 25.2898 32.8471 25.3555 32.9326 25.3942C34.1462 25.9553 35.1741 26.8518 35.8948 27.9779C36.6155 29.1041 36.9991 30.4129 37.0003 31.75C37.0003 31.89 37.0003 32.0278 36.9871 32.1656C36.9842 32.2249 36.9933 32.2841 37.0139 32.3398C37.0346 32.3954 37.0663 32.4462 37.1073 32.4892C37.1482 32.5322 37.1974 32.5664 37.252 32.5897C37.3066 32.6131 37.3653 32.6251 37.4246 32.625H42.2503C42.4477 32.6253 42.6395 32.5588 42.7944 32.4362C42.9493 32.3137 43.0582 32.1424 43.1034 31.9501C43.1317 31.8183 43.1304 31.6818 43.0995 31.5506C43.0687 31.4193 43.0091 31.2965 42.9251 31.1911H42.9196ZM33.1853 35.9139C34.0565 35.2467 34.6967 34.3232 35.016 33.2733C35.3353 32.2234 35.3176 31.0999 34.9653 30.0606C34.6131 29.0213 33.944 28.1185 33.0522 27.4791C32.1603 26.8397 31.0905 26.4958 29.9931 26.4958C28.8958 26.4958 27.826 26.8397 26.9341 27.4791C26.0423 28.1185 25.3732 29.0213 25.021 30.0606C24.6687 31.0999 24.651 32.2234 24.9703 33.2733C25.2896 34.3232 25.9298 35.2467 26.801 35.9139C25.2551 36.5837 23.9641 37.7309 23.1173 39.1875C23.0405 39.3205 23.0001 39.4714 23.0001 39.625C23.0001 39.7786 23.0405 39.9295 23.1173 40.0626C23.1942 40.1956 23.3046 40.306 23.4377 40.3828C23.5707 40.4596 23.7216 40.5 23.8753 40.5H36.1253C36.2789 40.5 36.4298 40.4596 36.5628 40.3828C36.6959 40.306 36.8064 40.1956 36.8832 40.0626C36.96 39.9295 37.0004 39.7786 37.0005 39.625C37.0005 39.4714 36.96 39.3205 36.8832 39.1875C36.0346 37.73 34.7412 36.5827 33.1929 35.9139H33.1853Z" fill="#E9E9FF"/>
</g>
<defs>
<clipPath id="clip0_167_766">
<rect width="28" height="28" fill="white" transform="translate(16 16)"/>
</clipPath>
</defs>
</svg>
