<svg width="60" height="60" viewBox="0 0 60 60" fill="none" xmlns="http://www.w3.org/2000/svg">
<rect x="0.6" y="0.6" width="58.8" height="58.8" rx="29.4" stroke="#E442FE" stroke-width="1.2"/>
<g clip-path="url(#clip0_167_517)">
<path d="M38.75 20.375H21.25C20.7859 20.375 20.3408 20.5594 20.0126 20.8876C19.6844 21.2158 19.5 21.6609 19.5 22.125V28.553C19.5 38.3541 27.7928 41.6058 29.4531 42.1581C29.8077 42.2787 30.1923 42.2787 30.5469 42.1581C32.2094 41.6058 40.5 38.3541 40.5 28.553V22.125C40.5 21.6609 40.3156 21.2158 39.9874 20.8876C39.6592 20.5594 39.2141 20.375 38.75 20.375ZM38.75 28.5552C38.75 30.4845 38.3825 32.1241 37.7962 33.5142L30.502 28.4086C30.3549 28.3055 30.1796 28.2502 30 28.2502C29.8204 28.2502 29.6451 28.3055 29.498 28.4086L22.2038 33.5142C21.6175 32.1241 21.25 30.4845 21.25 28.5552V22.125H38.75V28.5552Z" fill="#E9E9FF"/>
</g>
<defs>
<clipPath id="clip0_167_517">
<rect width="28" height="28" fill="white" transform="translate(16 16)"/>
</clipPath>
</defs>
</svg>
