<svg width="60" height="60" viewBox="0 0 60 60" fill="none" xmlns="http://www.w3.org/2000/svg">
<rect x="0.6" y="0.6" width="58.8" height="58.8" rx="29.4" stroke="#E442FE" stroke-width="1.2"/>
<g clip-path="url(#clip0_167_493)">
<path d="M41.6481 28.5103L36.7153 32.8153L38.1929 39.2247C38.2711 39.5597 38.2488 39.9104 38.1288 40.2329C38.0087 40.5553 37.7963 40.8352 37.5181 41.0376C37.2398 41.24 36.9081 41.3559 36.5644 41.3708C36.2206 41.3856 35.8801 41.2988 35.5854 41.1212L29.9953 37.7306L24.4171 41.1212C24.1224 41.2988 23.7819 41.3856 23.4382 41.3708C23.0945 41.3559 22.7627 41.24 22.4845 41.0376C22.2062 40.8352 21.9938 40.5553 21.8738 40.2329C21.7538 39.9104 21.7314 39.5597 21.8096 39.2247L23.2851 32.8219L18.3512 28.5103C18.0902 28.2852 17.9015 27.9881 17.8088 27.6562C17.716 27.3244 17.7233 26.9725 17.8297 26.6447C17.9361 26.3169 18.1369 26.0279 18.4069 25.8138C18.677 25.5997 19.0042 25.4701 19.3476 25.4412L25.851 24.878L28.3896 18.823C28.5222 18.5052 28.7458 18.2339 29.0323 18.043C29.3188 17.8521 29.6554 17.7502 29.9996 17.7502C30.3439 17.7502 30.6805 17.8521 30.967 18.043C31.2535 18.2339 31.4771 18.5052 31.6096 18.823L34.1559 24.878L40.6571 25.4412C41.0005 25.4701 41.3278 25.5997 41.5978 25.8138C41.8678 26.0279 42.0687 26.3169 42.1751 26.6447C42.2815 26.9725 42.2888 27.3244 42.196 27.6562C42.1032 27.9881 41.9145 28.2852 41.6535 28.5103H41.6481Z" fill="#E9E9FF"/>
</g>
<defs>
<clipPath id="clip0_167_493">
<rect width="28" height="28" fill="white" transform="translate(16 16)"/>
</clipPath>
</defs>
</svg>
