<svg xmlns="http://www.w3.org/2000/svg" width="24" height="24" viewBox="0 0 24 24" fill="none">
<path d="M14.5582 13.5577C13.9186 14.6361 12.6764 15.2036 11.4426 14.9811C10.2087 14.7585 9.24301 13.7928 9.02048 12.559C8.79795 11.3251 9.36544 10.0829 10.4438 9.44336" stroke="#8E8E8E" stroke-width="1.5" stroke-linecap="round" stroke-linejoin="round"/>
<path d="M17.9964 16.9962C16.2716 18.3044 14.1646 19.0095 11.9998 19.0029C8.41273 19.0668 5.09837 17.0954 3.44226 13.9128C2.84737 12.707 2.84737 11.293 3.44226 10.0872C4.27051 8.43785 5.59081 7.08659 7.22056 6.22034" stroke="#8E8E8E" stroke-width="1.5" stroke-linecap="round" stroke-linejoin="round"/>
<path d="M20.4268 14.1345C20.4669 14.0585 20.5191 13.9903 20.5571 13.9128C21.152 12.707 21.152 11.293 20.5571 10.0872C18.901 6.90465 15.5866 4.93323 11.9995 4.99711C11.7746 4.99711 11.556 5.02712 11.334 5.04175" stroke="#8E8E8E" stroke-width="1.5" stroke-linecap="round" stroke-linejoin="round"/>
<path d="M21.0032 20.0033L3.99609 2.99622" stroke="#8E8E8E" stroke-width="1.5" stroke-linecap="round" stroke-linejoin="round"/>
</svg>
