<?xml version="1.0" encoding="UTF-8" standalone="no"?> <svg class="svg-icon" style="width: 1.185546875em; height: 1em;vertical-align: middle;fill: currentColor;overflow: hidden;" viewBox="0 0 1214 1024" version="1.1" xmlns="http://www.w3.org/2000/svg"><path d="M1171.421846 191.608204v8.215919a147.465582 147.465582 0 0 1-39.75866 100.695811q-4.819232 5.182125-10.161031 9.870715a148.29298 148.29298 0 0 1-49.629375 29.263768 65.495099 65.495099 0 0 0-43.721462 61.880674v430.856719a148.496201 148.496201 0 0 1-148.060728 148.060728H334.835185c-81.4334 0-148.060728-66.627328-148.060728-148.060728V401.535091a65.495099 65.495099 0 0 0-43.721462-61.880674C85.280279 319.433966 43.547476 264.274087 43.547476 199.824123V191.608204c0-69.211133 48.134252-127.738667 112.584217-143.706001A146.043038 146.043038 0 0 1 191.608204 43.547476h831.752914c81.4334 0 148.060728 66.627328 148.060728 148.060728z" fill="#EEA450" /><path d="M1171.421846 191.608204v8.215919a147.465582 147.465582 0 0 1-39.75866 100.695811 64.348354 64.348354 0 0 0-10.161031 9.870715 148.29298 148.29298 0 0 1-49.629375 29.263768 65.495099 65.495099 0 0 0-43.721462 61.880674v430.856719a147.247846 147.247846 0 0 1-34.199125 94.352425 146.043038 146.043038 0 0 1-35.476512 4.354727H413.220276c-81.4334 0-148.060728-66.627328-148.060728-148.060728V352.181515a65.495099 65.495099 0 0 0-43.721462-61.880674C163.665371 270.08039 121.932568 214.920511 121.932568 150.470547V142.254628a147.247846 147.247846 0 0 1 34.199125-94.352425A146.043038 146.043038 0 0 1 191.608204 43.547476h831.752914c81.4334 0 148.060728 66.627328 148.060728 148.060728z" fill="#F4D162" /><path d="M1023.361118 43.547476c81.4334 0 148.060728 66.627328 148.060728 148.060728v8.215919c0 64.449964-41.732803 119.609843-99.491003 139.830294a65.52413 65.52413 0 0 0-43.735978 61.880674v430.856719c0 81.4334-66.627328 148.060728-148.060728 148.060728H334.835185c-81.4334 0-148.060728-66.627328-148.060728-148.060728V401.535091a65.509614 65.509614 0 0 0-43.735978-61.880674C85.280279 319.433966 43.547476 264.274087 43.547476 199.824123V191.608204C43.547476 110.174804 110.174804 43.547476 191.608204 43.547476h831.752914m0-43.547273H191.608204a189.38709 189.38709 0 0 0-74.509384 15.154451 193.059577 193.059577 0 0 0-101.944166 101.92965A189.459669 189.459669 0 0 0 0.000203 191.608204v8.215919a192.05799 192.05799 0 0 0 128.65316 180.938919 21.918794 21.918794 0 0 1 14.515758 20.772049v430.856719a189.706437 189.706437 0 0 0 15.139935 74.5239 193.233766 193.233766 0 0 0 101.944166 101.944166 189.648374 189.648374 0 0 0 74.5239 15.139935h545.357015a189.648374 189.648374 0 0 0 74.5239-15.139935 193.233766 193.233766 0 0 0 101.944166-101.944166 189.706437 189.706437 0 0 0 15.139935-74.5239V401.535091a21.947826 21.947826 0 0 1 14.515758-20.772049 192.05799 192.05799 0 0 0 128.65316-180.938919V191.608204a189.459669 189.459669 0 0 0-15.154451-74.5239 193.059577 193.059577 0 0 0-101.92965-101.92965A189.517732 189.517732 0 0 0 1023.303055 0.000203z" fill="#6D2F2E" /><path d="M633.874309 496.932651a44.679502 44.679502 0 0 1-26.389648-8.564297 44.911754 44.911754 0 0 1-71.286886-36.289394 10.886818 10.886818 0 0 1 21.773637 0 23.109086 23.109086 0 0 0 41.065078 14.515757 10.886818 10.886818 0 0 1 16.896342 0 23.109086 23.109086 0 0 0 41.065078-14.515757 10.886818 10.886818 0 0 1 21.773637 0 44.998849 44.998849 0 0 1-44.897238 44.853691z" fill="#6D2F2E" /><path d="M459.438449 293.145929m-87.094546 0a87.094546 87.094546 0 1 0 174.189092 0 87.094546 87.094546 0 1 0-174.189092 0Z" fill="#FFFFFF" /><path d="M459.438449 293.145929m-59.122681 0a59.122681 59.122681 0 1 0 118.245362 0 59.122681 59.122681 0 1 0-118.245362 0Z" fill="#6D2F2E" /><path d="M467.843072 272.649679m-23.283275 0a23.283275 23.283275 0 1 0 46.566551 0 23.283275 23.283275 0 1 0-46.566551 0Z" fill="#FFFFFF" /><path d="M433.281053 304.584346m-14.167379 0a14.167379 14.167379 0 1 0 28.334759 0 14.167379 14.167379 0 1 0-28.334759 0Z" fill="#FFFFFF" /><path d="M473.750986 320.348459m-12.062595 0a12.062595 12.062595 0 1 0 24.125189 0 12.062595 12.062595 0 1 0-24.125189 0Z" fill="#FFFFFF" /><path d="M459.438449 391.127293a97.981364 97.981364 0 1 1 97.966848-97.981364 98.09749 98.09749 0 0 1-97.966848 97.981364z m0-174.189092a76.207728 76.207728 0 1 0 76.193212 76.207728 76.294822 76.294822 0 0 0-76.193212-76.207728z" fill="#6D2F2E" /><path d="M755.545389 293.145929m-87.094546 0a87.094546 87.094546 0 1 0 174.189092 0 87.094546 87.094546 0 1 0-174.189092 0Z" fill="#FFFFFF" /><path d="M755.545389 293.145929m-59.122681 0a59.122681 59.122681 0 1 0 118.245362 0 59.122681 59.122681 0 1 0-118.245362 0Z" fill="#6D2F2E" /><path d="M763.950013 272.649679m-23.283275 0a23.283275 23.283275 0 1 0 46.56655 0 23.283275 23.283275 0 1 0-46.56655 0Z" fill="#FFFFFF" /><path d="M729.387994 304.584346m-14.16738 0a14.167379 14.167379 0 1 0 28.334759 0 14.167379 14.167379 0 1 0-28.334759 0Z" fill="#FFFFFF" /><path d="M769.857926 320.348459m-12.062594 0a12.062595 12.062595 0 1 0 24.125189 0 12.062595 12.062595 0 1 0-24.125189 0Z" fill="#FFFFFF" /><path d="M755.530873 391.127293a97.981364 97.981364 0 1 1 97.981365-97.981364 98.082974 98.082974 0 0 1-97.981365 97.981364z m0-174.189092a76.207728 76.207728 0 1 0 76.207728 76.207728 76.294822 76.294822 0 0 0-76.207728-76.207728z" fill="#6D2F2E" /><path d="M355.694329 416.137944a43.547273 29.031515 0 1 0 87.094546 0 43.547273 29.031515 0 1 0-87.094546 0Z" fill="#E65257" /><path d="M782.457604 416.137944a43.547273 29.031515 0 1 0 87.094546 0 43.547273 29.031515 0 1 0-87.094546 0Z" fill="#E65257" /><path d="M967.17062 574.650017a10.886818 10.886818 0 0 1-10.886818-10.886818v-169.834365a10.886818 10.886818 0 1 1 21.773636 0v169.834365a10.886818 10.886818 0 0 1-10.886818 10.886818zM964.993256 661.744563a10.886818 10.886818 0 0 1-10.886818-10.886818v-41.369909a10.886818 10.886818 0 0 1 21.773637 0v41.369909a10.886818 10.886818 0 0 1-10.886819 10.886818z" fill="#FFFFFF" /><path d="M326.169278 839.519047m-100.158728 0a100.158728 100.158728 0 1 0 200.317456 0 100.158728 100.158728 0 1 0-200.317456 0Z" fill="#EEA450" /><path d="M356.652369 640.653167m-42.574717 0a42.574717 42.574717 0 1 0 85.149434 0 42.574717 42.574717 0 1 0-85.149434 0Z" fill="#EEA450" /><path d="M570.904952 879.480928m-69.675637 0a69.675637 69.675637 0 1 0 139.351274 0 69.675637 69.675637 0 1 0-139.351274 0Z" fill="#EEA450" /></svg>