<svg width="22" height="22" viewBox="0 0 22 22" fill="none" xmlns="http://www.w3.org/2000/svg">
<path d="M14.6625 4.59572L13.9589 6.70654C13.8342 7.08085 13.4839 7.33333 13.0893 7.33333H8.9107C8.51614 7.33333 8.16585 7.08085 8.04107 6.70654L7.33735 4.59537" stroke="#E9E9FF" stroke-width="1.5" stroke-linecap="round" stroke-linejoin="round"/>
<path fill-rule="evenodd" clip-rule="evenodd" d="M8.02969 13.75L6.60204 16.16C6.14061 16.939 5.30244 17.4167 4.39708 17.4167V17.4167C3.62414 17.4167 2.89248 17.0678 2.40589 16.4673C1.91929 15.8667 1.72973 15.0786 1.89 14.3225L3.18433 8.21627C3.63327 6.0983 5.50301 4.58334 7.66804 4.58334H14.3319C16.497 4.58332 18.3667 6.09829 18.8157 8.21627L20.11 14.3225C20.2703 15.0786 20.0807 15.8667 19.5941 16.4673C19.1075 17.0678 18.3758 17.4167 17.6029 17.4167V17.4167C16.6975 17.4167 15.8594 16.939 15.3979 16.16L13.9703 13.75H8.02969Z" stroke="#E9E9FF" stroke-width="1.5" stroke-linecap="round" stroke-linejoin="round"/>
</svg>
