<svg width="28" height="28" viewBox="0 0 28 28" fill="none" xmlns="http://www.w3.org/2000/svg">
<g clip-path="url(#clip0_129_1339)">
<path d="M23.625 3.5H16.625C16.491 3.49999 16.3588 3.53075 16.2385 3.58992C16.1183 3.64908 16.0133 3.73507 15.9315 3.84125L8.93153 12.9423L7.87497 11.888C7.71244 11.7253 7.51944 11.5962 7.30699 11.5081C7.09454 11.42 6.86682 11.3747 6.63685 11.3747C6.40687 11.3747 6.17915 11.42 5.9667 11.5081C5.75425 11.5962 5.56125 11.7253 5.39872 11.888L4.01075 13.277C3.84821 13.4395 3.71927 13.6325 3.6313 13.8448C3.54333 14.0572 3.49805 14.2848 3.49805 14.5146C3.49805 14.7445 3.54333 14.9721 3.6313 15.1844C3.71927 15.3967 3.84821 15.5897 4.01075 15.7522L6.19825 17.9397L3.13575 21.0022C2.97321 21.1647 2.84427 21.3576 2.7563 21.57C2.66833 21.7823 2.62305 22.0099 2.62305 22.2398C2.62305 22.4696 2.66833 22.6972 2.7563 22.9096C2.84427 23.1219 2.97321 23.3148 3.13575 23.4773L4.52372 24.8642C4.85188 25.1922 5.29682 25.3764 5.76075 25.3764C6.22468 25.3764 6.66963 25.1922 6.99778 24.8642L10.0603 21.8017L12.2478 23.9892C12.4103 24.1519 12.6033 24.281 12.8158 24.3691C13.0282 24.4571 13.2559 24.5025 13.4859 24.5025C13.7159 24.5025 13.9436 24.4571 14.1561 24.3691C14.3685 24.281 14.5615 24.1519 14.724 23.9892L16.112 22.6002C16.2745 22.4376 16.4035 22.2447 16.4915 22.0324C16.5794 21.82 16.6247 21.5924 16.6247 21.3626C16.6247 21.1327 16.5794 20.9051 16.4915 20.6928C16.4035 20.4804 16.2745 20.2875 16.112 20.125L15.0576 19.0706L24.1587 12.0706C24.2652 11.9887 24.3514 11.8833 24.4105 11.7626C24.4697 11.642 24.5003 11.5094 24.5 11.375V4.375C24.5 4.14294 24.4078 3.92038 24.2437 3.75628C24.0796 3.59219 23.857 3.5 23.625 3.5ZM22.75 10.9441L13.8097 17.8216L12.6131 16.625L18.119 11.1191C18.2831 10.9549 18.3752 10.7323 18.3751 10.5002C18.375 10.2681 18.2827 10.0455 18.1185 9.88148C17.9543 9.71744 17.7317 9.62534 17.4996 9.62545C17.2675 9.62555 17.0449 9.71784 16.8809 9.88203L11.375 15.3869L10.1795 14.1903L17.0559 5.25H22.75V10.9441Z" fill="#6842FE"/>
</g>
<defs>
<clipPath id="clip0_129_1339">
<rect width="28" height="28" fill="white"/>
</clipPath>
</defs>
</svg>
