<svg width="28" height="28" viewBox="0 0 28 28" fill="none" xmlns="http://www.w3.org/2000/svg">
<g clip-path="url(#clip0_129_1336)">
<path d="M23.625 5.25H4.37503C3.9109 5.25 3.46578 5.43437 3.13759 5.76256C2.80941 6.09075 2.62503 6.53587 2.62503 7V24.5C2.62301 24.8337 2.71742 25.1609 2.89689 25.4422C3.07637 25.7236 3.33328 25.9471 3.63675 26.0859C3.868 26.1936 4.11994 26.2496 4.37503 26.25C4.78585 26.249 5.18304 26.1025 5.49613 25.8366C5.50134 25.8332 5.50612 25.8291 5.51034 25.8245L9.02347 22.75H23.625C24.0892 22.75 24.5343 22.5656 24.8625 22.2374C25.1907 21.9092 25.375 21.4641 25.375 21V7C25.375 6.53587 25.1907 6.09075 24.8625 5.76256C24.5343 5.43437 24.0892 5.25 23.625 5.25ZM9.18753 15.3125C8.92794 15.3125 8.67419 15.2355 8.45835 15.0913C8.24251 14.9471 8.07428 14.7421 7.97494 14.5023C7.8756 14.2624 7.84961 13.9985 7.90025 13.7439C7.95089 13.4893 8.0759 13.2555 8.25945 13.0719C8.44301 12.8884 8.67688 12.7634 8.93148 12.7127C9.18608 12.6621 9.44998 12.6881 9.6898 12.7874C9.92963 12.8867 10.1346 13.055 10.2788 13.2708C10.4231 13.4867 10.5 13.7404 10.5 14C10.5 14.3481 10.3618 14.6819 10.1156 14.9281C9.86947 15.1742 9.53563 15.3125 9.18753 15.3125ZM14 15.3125C13.7404 15.3125 13.4867 15.2355 13.2708 15.0913C13.055 14.9471 12.8868 14.7421 12.7874 14.5023C12.6881 14.2624 12.6621 13.9985 12.7128 13.7439C12.7634 13.4893 12.8884 13.2555 13.072 13.0719C13.2555 12.8884 13.4894 12.7634 13.744 12.7127C13.9986 12.6621 14.2625 12.6881 14.5023 12.7874C14.7421 12.8867 14.9471 13.055 15.0913 13.2708C15.2356 13.4867 15.3125 13.7404 15.3125 14C15.3125 14.3481 15.1743 14.6819 14.9281 14.9281C14.682 15.1742 14.3481 15.3125 14 15.3125ZM18.8125 15.3125C18.5529 15.3125 18.2992 15.2355 18.0833 15.0913C17.8675 14.9471 17.6993 14.7421 17.5999 14.5023C17.5006 14.2624 17.4746 13.9985 17.5253 13.7439C17.5759 13.4893 17.7009 13.2555 17.8845 13.0719C18.068 12.8884 18.3019 12.7634 18.5565 12.7127C18.8111 12.6621 19.075 12.6881 19.3148 12.7874C19.5546 12.8867 19.7596 13.055 19.9038 13.2708C20.0481 13.4867 20.125 13.7404 20.125 14C20.125 14.3481 19.9868 14.6819 19.7406 14.9281C19.4945 15.1742 19.1606 15.3125 18.8125 15.3125Z" fill="#6842FE"/>
</g>
<defs>
<clipPath id="clip0_129_1336">
<rect width="28" height="28" fill="white"/>
</clipPath>
</defs>
</svg>
