<svg width="20" height="20" viewBox="0 0 20 20" fill="none" xmlns="http://www.w3.org/2000/svg">
<g clip-path="url(#clip0_202_2)">
<rect width="20" height="20" fill="white"/>
<path d="M6.52948 14.8721L5.39648 14.4027C5.60276 14.8372 5.96214 15.1803 6.40573 15.3662C6.88627 15.5657 7.42638 15.5663 7.90734 15.3678C8.3883 15.1692 8.77074 14.7878 8.97057 14.3074C9.17223 13.8243 9.17315 13.289 8.97332 12.805C8.8762 12.5662 8.73259 12.349 8.55083 12.1662C8.36908 11.9833 8.1528 11.8384 7.91457 11.7398C7.45304 11.5474 6.93523 11.5395 6.46807 11.7178L7.63957 12.2037C7.99329 12.3515 8.27385 12.6337 8.41961 12.9883C8.56536 13.3429 8.56439 13.7409 8.4169 14.0947C8.34407 14.2698 8.23746 14.4287 8.10317 14.5625C7.96889 14.6963 7.80955 14.8023 7.63427 14.8745C7.45899 14.9467 7.2712 14.9836 7.08163 14.9832C6.89207 14.9828 6.70445 14.945 6.52948 14.8721Z" fill="#E9E9FF"/>
<path d="M9.98042 0.833334C5.12209 0.833334 1.14651 4.61275 0.833008 9.39133L0.836674 9.39775V9.39683L5.76192 11.4245C6.2061 11.1303 6.73212 10.9846 7.26434 11.0083L9.50742 7.74958L9.50651 7.70467C9.50675 6.78088 9.87345 5.89492 10.5261 5.2412C11.1788 4.58747 12.0642 4.21937 12.988 4.21767C13.4519 4.21366 13.9119 4.30222 14.3411 4.47818C14.7704 4.65414 15.1602 4.91395 15.4878 5.24241C15.8154 5.57086 16.0741 5.96137 16.2489 6.39107C16.4238 6.82076 16.5111 7.28101 16.5058 7.74488C16.5006 8.20874 16.4029 8.6669 16.2184 9.09254C16.0339 9.51817 15.7664 9.90273 15.4315 10.2237C15.0965 10.5447 14.7009 10.7956 14.2678 10.9618C13.8347 11.128 13.3728 11.2062 12.9092 11.1917L9.69992 13.4852C9.71147 13.9095 9.6166 14.33 9.42397 14.7082C9.23135 15.0865 8.9471 15.4105 8.59714 15.6507C8.24718 15.891 7.84264 16.0398 7.42043 16.0836C6.99821 16.1274 6.57175 16.0648 6.17992 15.9015C5.80383 15.7445 5.47106 15.4993 5.20972 15.1866C4.94837 14.8739 4.76614 14.5028 4.67842 14.1048L1.20884 12.673C2.35467 16.4323 5.84717 19.1667 9.98042 19.1667C15.0432 19.1667 19.1471 15.0628 19.1471 10C19.1471 4.93725 15.0423 0.833334 9.98042 0.833334Z" fill="#E9E9FF"/>
<path d="M15.3099 7.70375C15.3095 7.08824 15.065 6.49802 14.6301 6.06244C14.1952 5.62686 13.6054 5.38146 12.9899 5.38C12.3849 5.397 11.8103 5.64927 11.3884 6.08321C10.9665 6.51714 10.7305 7.09851 10.7305 7.70375C10.7305 8.30899 10.9665 8.89036 11.3884 9.3243C11.8103 9.75823 12.3849 10.0105 12.9899 10.0275C13.6055 10.0265 14.1956 9.78128 14.6306 9.3456C15.0656 8.90991 15.3099 8.31941 15.3099 7.70375ZM11.2519 7.701C11.2519 6.73667 12.0329 5.95475 12.9935 5.95475C13.956 5.95475 14.7361 6.73667 14.7361 7.701C14.7363 7.93004 14.6915 8.15688 14.604 8.36856C14.5166 8.58024 14.3882 8.77262 14.2264 8.9347C14.0646 9.09678 13.8724 9.22539 13.6609 9.31318C13.4493 9.40097 13.2226 9.44621 12.9935 9.44633C12.0319 9.44633 11.2519 8.66442 11.2519 7.701Z" fill="#E9E9FF"/>
</g>
<defs>
<clipPath id="clip0_202_2">
<rect width="20" height="20" fill="white"/>
</clipPath>
</defs>
</svg>
