<svg xmlns="http://www.w3.org/2000/svg" width="126" height="44" viewBox="0 0 126 44" fill="none">
<circle cx="22" cy="22" r="19.5" stroke="#002D59" stroke-width="5"/>
<path d="M72.1875 28.4453H64.5117V14.0898H61.4883V31H72.1875V28.4453ZM81.1055 13.8086C76.1719 13.8086 73.0781 17.1719 73.0781 22.5508C73.0781 27.9297 76.1719 31.2812 81.1055 31.2812C86.0273 31.2812 89.1211 27.9297 89.1211 22.5508C89.1211 17.1719 86.0273 13.8086 81.1055 13.8086ZM81.1055 16.3867C84.1172 16.3867 86.0391 18.7773 86.0391 22.5508C86.0391 26.3125 84.1172 28.7031 81.1055 28.7031C78.082 28.7031 76.1719 26.3125 76.1719 22.5508C76.1719 18.7773 78.082 16.3867 81.1055 16.3867ZM106.336 23.9453V22.1406H99.3047V24.4492H103.383L103.371 24.7305C103.324 27.0977 101.555 28.7148 99 28.7148C95.9531 28.7148 94.0547 26.3359 94.0547 22.4453C94.0547 18.6367 95.8711 16.375 98.918 16.375C100.992 16.375 102.562 17.5234 103.137 19.4688H106.207C105.656 16.082 102.75 13.8086 98.9062 13.8086C94.0195 13.8086 90.9609 17.1133 90.9609 22.4805C90.9609 27.9297 94.0312 31.2812 98.9648 31.2812C103.594 31.2812 106.336 28.5273 106.336 23.9453ZM116.262 13.8086C111.328 13.8086 108.234 17.1719 108.234 22.5508C108.234 27.9297 111.328 31.2812 116.262 31.2812C121.184 31.2812 124.277 27.9297 124.277 22.5508C124.277 17.1719 121.184 13.8086 116.262 13.8086ZM116.262 16.3867C119.273 16.3867 121.195 18.7773 121.195 22.5508C121.195 26.3125 119.273 28.7031 116.262 28.7031C113.238 28.7031 111.328 26.3125 111.328 22.5508C111.328 18.7773 113.238 16.3867 116.262 16.3867Z" fill="#002D59"/>
</svg>
